<mxfile host="app.diagrams.net" agent="Mozilla/5.0 (Windows NT 10.0; Win64; x64) AppleWebKit/537.36 (KHTML, like Gecko) Chrome/139.0.0.0 Safari/537.36" version="28.1.1">
  <diagram name="Page-1" id="pqHICeZLW7C7Gnf15Er0">
    <mxGraphModel dx="3420" dy="1427" grid="1" gridSize="10" guides="1" tooltips="1" connect="1" arrows="1" fold="1" page="1" pageScale="1" pageWidth="827" pageHeight="1169" math="0" shadow="0">
      <root>
        <mxCell id="0" />
        <mxCell id="1" parent="0" />
        <mxCell id="Odbw6xBOLVZNWxYlY6ok-3" style="edgeStyle=orthogonalEdgeStyle;rounded=0;orthogonalLoop=1;jettySize=auto;html=1;entryX=0;entryY=0.5;entryDx=0;entryDy=0;" parent="1" source="Odbw6xBOLVZNWxYlY6ok-1" edge="1">
          <mxGeometry relative="1" as="geometry">
            <mxPoint x="990" y="940.0000000000002" as="targetPoint" />
          </mxGeometry>
        </mxCell>
        <mxCell id="Odbw6xBOLVZNWxYlY6ok-1" value="Satellite frame" style="rounded=0;whiteSpace=wrap;html=1;" parent="1" vertex="1">
          <mxGeometry x="820" y="910" width="120" height="60" as="geometry" />
        </mxCell>
        <mxCell id="Odbw6xBOLVZNWxYlY6ok-12" style="edgeStyle=orthogonalEdgeStyle;rounded=0;orthogonalLoop=1;jettySize=auto;html=1;" parent="1" source="Odbw6xBOLVZNWxYlY6ok-4" target="Odbw6xBOLVZNWxYlY6ok-11" edge="1">
          <mxGeometry relative="1" as="geometry" />
        </mxCell>
        <mxCell id="Odbw6xBOLVZNWxYlY6ok-4" value="Rail Network Analysis&lt;br&gt;(From rail observer module)" style="rounded=0;whiteSpace=wrap;html=1;" parent="1" vertex="1">
          <mxGeometry x="1264" y="820" width="120" height="60" as="geometry" />
        </mxCell>
        <mxCell id="Odbw6xBOLVZNWxYlY6ok-14" style="edgeStyle=orthogonalEdgeStyle;rounded=0;orthogonalLoop=1;jettySize=auto;html=1;entryX=0;entryY=0.5;entryDx=0;entryDy=0;" parent="1" source="Odbw6xBOLVZNWxYlY6ok-5" target="Odbw6xBOLVZNWxYlY6ok-11" edge="1">
          <mxGeometry relative="1" as="geometry">
            <mxPoint x="1484" y="940" as="targetPoint" />
          </mxGeometry>
        </mxCell>
        <mxCell id="Odbw6xBOLVZNWxYlY6ok-5" value="Magnetic field data&lt;br&gt;(From magnetometer module)" style="rounded=0;whiteSpace=wrap;html=1;" parent="1" vertex="1">
          <mxGeometry x="1264" y="910" width="120" height="60" as="geometry" />
        </mxCell>
        <mxCell id="Odbw6xBOLVZNWxYlY6ok-16" style="edgeStyle=orthogonalEdgeStyle;rounded=0;orthogonalLoop=1;jettySize=auto;html=1;entryX=0;entryY=0.5;entryDx=0;entryDy=0;" parent="1" source="Odbw6xBOLVZNWxYlY6ok-6" target="Odbw6xBOLVZNWxYlY6ok-15" edge="1">
          <mxGeometry relative="1" as="geometry" />
        </mxCell>
        <mxCell id="Odbw6xBOLVZNWxYlY6ok-6" value="Geographic analysis&lt;br&gt;(From Geographic Analysis Module)" style="rounded=0;whiteSpace=wrap;html=1;" parent="1" vertex="1">
          <mxGeometry x="1264" y="1000" width="120" height="60" as="geometry" />
        </mxCell>
        <mxCell id="Odbw6xBOLVZNWxYlY6ok-7" value="" style="endArrow=none;html=1;rounded=0;" parent="1" edge="1">
          <mxGeometry width="50" height="50" relative="1" as="geometry">
            <mxPoint x="1234" y="1210" as="sourcePoint" />
            <mxPoint x="1234" y="850" as="targetPoint" />
          </mxGeometry>
        </mxCell>
        <mxCell id="Odbw6xBOLVZNWxYlY6ok-8" value="" style="endArrow=classic;html=1;rounded=0;entryX=0;entryY=0.5;entryDx=0;entryDy=0;" parent="1" target="Odbw6xBOLVZNWxYlY6ok-4" edge="1">
          <mxGeometry width="50" height="50" relative="1" as="geometry">
            <mxPoint x="1234" y="850" as="sourcePoint" />
            <mxPoint x="1174" y="770" as="targetPoint" />
          </mxGeometry>
        </mxCell>
        <mxCell id="Odbw6xBOLVZNWxYlY6ok-9" value="" style="endArrow=classic;html=1;rounded=0;entryX=0;entryY=0.5;entryDx=0;entryDy=0;exitX=1;exitY=0.5;exitDx=0;exitDy=0;" parent="1" edge="1">
          <mxGeometry width="50" height="50" relative="1" as="geometry">
            <mxPoint x="1110" y="940.0000000000002" as="sourcePoint" />
            <mxPoint x="1264" y="939.76" as="targetPoint" />
          </mxGeometry>
        </mxCell>
        <mxCell id="Odbw6xBOLVZNWxYlY6ok-17" value="Via computer" style="edgeLabel;html=1;align=center;verticalAlign=middle;resizable=0;points=[];" parent="Odbw6xBOLVZNWxYlY6ok-9" vertex="1" connectable="0">
          <mxGeometry x="-0.4201" relative="1" as="geometry">
            <mxPoint x="15" as="offset" />
          </mxGeometry>
        </mxCell>
        <mxCell id="Odbw6xBOLVZNWxYlY6ok-10" value="" style="endArrow=classic;html=1;rounded=0;entryX=0;entryY=0.5;entryDx=0;entryDy=0;" parent="1" edge="1">
          <mxGeometry width="50" height="50" relative="1" as="geometry">
            <mxPoint x="1234" y="1029.76" as="sourcePoint" />
            <mxPoint x="1264" y="1029.76" as="targetPoint" />
          </mxGeometry>
        </mxCell>
        <mxCell id="Odbw6xBOLVZNWxYlY6ok-11" value="Maglev, etc..." style="rounded=0;whiteSpace=wrap;html=1;fillColor=#e1d5e7;strokeColor=#9673a6;" parent="1" vertex="1">
          <mxGeometry x="1484" y="860" width="120" height="60" as="geometry" />
        </mxCell>
        <mxCell id="Odbw6xBOLVZNWxYlY6ok-15" value="5x5 radius chunk loader" style="rounded=0;whiteSpace=wrap;html=1;fillColor=#e1d5e7;strokeColor=#9673a6;" parent="1" vertex="1">
          <mxGeometry x="1484" y="1000" width="120" height="60" as="geometry" />
        </mxCell>
        <mxCell id="Odbw6xBOLVZNWxYlY6ok-19" style="edgeStyle=orthogonalEdgeStyle;rounded=0;orthogonalLoop=1;jettySize=auto;html=1;entryX=0.5;entryY=1;entryDx=0;entryDy=0;" parent="1" source="Odbw6xBOLVZNWxYlY6ok-18" edge="1">
          <mxGeometry relative="1" as="geometry">
            <mxPoint x="1050" y="970.0000000000002" as="targetPoint" />
          </mxGeometry>
        </mxCell>
        <mxCell id="Odbw6xBOLVZNWxYlY6ok-106" value="x10" style="edgeLabel;html=1;align=center;verticalAlign=middle;resizable=0;points=[];" parent="Odbw6xBOLVZNWxYlY6ok-19" vertex="1" connectable="0">
          <mxGeometry x="-0.4412" y="1" relative="1" as="geometry">
            <mxPoint as="offset" />
          </mxGeometry>
        </mxCell>
        <mxCell id="Odbw6xBOLVZNWxYlY6ok-18" value="Blank Punchcard" style="rounded=0;whiteSpace=wrap;html=1;fillColor=#d5e8d4;strokeColor=#82b366;" parent="1" vertex="1">
          <mxGeometry x="820" y="1000" width="120" height="60" as="geometry" />
        </mxCell>
        <mxCell id="Odbw6xBOLVZNWxYlY6ok-21" style="edgeStyle=orthogonalEdgeStyle;rounded=0;orthogonalLoop=1;jettySize=auto;html=1;entryX=0;entryY=0.5;entryDx=0;entryDy=0;" parent="1" source="Odbw6xBOLVZNWxYlY6ok-20" target="Odbw6xBOLVZNWxYlY6ok-18" edge="1">
          <mxGeometry relative="1" as="geometry" />
        </mxCell>
        <mxCell id="Odbw6xBOLVZNWxYlY6ok-20" value="Cardboard" style="rounded=0;whiteSpace=wrap;html=1;fillColor=#d5e8d4;strokeColor=#82b366;" parent="1" vertex="1">
          <mxGeometry x="610" y="1000" width="120" height="60" as="geometry" />
        </mxCell>
        <mxCell id="Odbw6xBOLVZNWxYlY6ok-22" value="Others?" style="rounded=0;whiteSpace=wrap;html=1;fillColor=#e1d5e7;strokeColor=#9673a6;" parent="1" vertex="1">
          <mxGeometry x="1264" y="1180" width="120" height="60" as="geometry" />
        </mxCell>
        <mxCell id="Odbw6xBOLVZNWxYlY6ok-23" value="" style="endArrow=classic;html=1;rounded=0;entryX=0;entryY=0.5;entryDx=0;entryDy=0;" parent="1" edge="1">
          <mxGeometry width="50" height="50" relative="1" as="geometry">
            <mxPoint x="1234" y="1119.71" as="sourcePoint" />
            <mxPoint x="1264" y="1119.71" as="targetPoint" />
          </mxGeometry>
        </mxCell>
        <mxCell id="Odbw6xBOLVZNWxYlY6ok-32" style="edgeStyle=orthogonalEdgeStyle;rounded=0;orthogonalLoop=1;jettySize=auto;html=1;entryX=0;entryY=0.5;entryDx=0;entryDy=0;" parent="1" source="Odbw6xBOLVZNWxYlY6ok-24" target="Odbw6xBOLVZNWxYlY6ok-25" edge="1">
          <mxGeometry relative="1" as="geometry" />
        </mxCell>
        <mxCell id="Odbw6xBOLVZNWxYlY6ok-33" value="Deploy&lt;br&gt;Iron ingot" style="edgeLabel;html=1;align=center;verticalAlign=middle;resizable=0;points=[];" parent="Odbw6xBOLVZNWxYlY6ok-32" vertex="1" connectable="0">
          <mxGeometry x="-0.3688" y="2" relative="1" as="geometry">
            <mxPoint x="15" y="2" as="offset" />
          </mxGeometry>
        </mxCell>
        <mxCell id="Odbw6xBOLVZNWxYlY6ok-24" value="Bolt cast" style="rounded=0;whiteSpace=wrap;html=1;fillColor=#d5e8d4;strokeColor=#82b366;" parent="1" vertex="1">
          <mxGeometry x="-790" y="30" width="120" height="60" as="geometry" />
        </mxCell>
        <mxCell id="Odbw6xBOLVZNWxYlY6ok-31" style="edgeStyle=orthogonalEdgeStyle;rounded=0;orthogonalLoop=1;jettySize=auto;html=1;" parent="1" edge="1">
          <mxGeometry relative="1" as="geometry">
            <mxPoint x="60" y="60" as="sourcePoint" />
            <mxPoint x="-730" y="90" as="targetPoint" />
            <Array as="points">
              <mxPoint x="60" y="120" />
              <mxPoint x="-730" y="120" />
            </Array>
          </mxGeometry>
        </mxCell>
        <mxCell id="Odbw6xBOLVZNWxYlY6ok-60" value="Gives back 2x casts (as two were used)" style="edgeLabel;html=1;align=center;verticalAlign=middle;resizable=0;points=[];" parent="Odbw6xBOLVZNWxYlY6ok-31" vertex="1" connectable="0">
          <mxGeometry x="-0.9334" y="-2" relative="1" as="geometry">
            <mxPoint x="-378" y="31" as="offset" />
          </mxGeometry>
        </mxCell>
        <mxCell id="Odbw6xBOLVZNWxYlY6ok-53" style="edgeStyle=orthogonalEdgeStyle;rounded=0;orthogonalLoop=1;jettySize=auto;html=1;" parent="1" source="Odbw6xBOLVZNWxYlY6ok-25" target="Odbw6xBOLVZNWxYlY6ok-52" edge="1">
          <mxGeometry relative="1" as="geometry" />
        </mxCell>
        <mxCell id="Odbw6xBOLVZNWxYlY6ok-54" value="Deploy Bolt&lt;br&gt;Cast" style="edgeLabel;html=1;align=center;verticalAlign=middle;resizable=0;points=[];" parent="Odbw6xBOLVZNWxYlY6ok-53" vertex="1" connectable="0">
          <mxGeometry x="-0.1658" y="-1" relative="1" as="geometry">
            <mxPoint as="offset" />
          </mxGeometry>
        </mxCell>
        <mxCell id="Odbw6xBOLVZNWxYlY6ok-25" value="Incomplete Bolt&lt;br&gt;(0/2)" style="rounded=0;whiteSpace=wrap;html=1;fillColor=#d5e8d4;strokeColor=#82b366;" parent="1" vertex="1">
          <mxGeometry x="-560" y="30" width="120" height="60" as="geometry" />
        </mxCell>
        <mxCell id="Odbw6xBOLVZNWxYlY6ok-51" style="edgeStyle=orthogonalEdgeStyle;rounded=0;orthogonalLoop=1;jettySize=auto;html=1;" parent="1" source="Odbw6xBOLVZNWxYlY6ok-26" target="Odbw6xBOLVZNWxYlY6ok-43" edge="1">
          <mxGeometry relative="1" as="geometry" />
        </mxCell>
        <mxCell id="Odbw6xBOLVZNWxYlY6ok-68" value="Mechanical&lt;br&gt;Crafting" style="edgeLabel;html=1;align=center;verticalAlign=middle;resizable=0;points=[];" parent="Odbw6xBOLVZNWxYlY6ok-51" vertex="1" connectable="0">
          <mxGeometry x="0.0873" y="-2" relative="1" as="geometry">
            <mxPoint x="10" y="-2" as="offset" />
          </mxGeometry>
        </mxCell>
        <mxCell id="Odbw6xBOLVZNWxYlY6ok-26" value="Bolt" style="rounded=0;whiteSpace=wrap;html=1;fillColor=#d5e8d4;strokeColor=#82b366;" parent="1" vertex="1">
          <mxGeometry x="130" y="30" width="120" height="60" as="geometry" />
        </mxCell>
        <mxCell id="Odbw6xBOLVZNWxYlY6ok-36" value="Cobalt sheet" style="rounded=0;whiteSpace=wrap;html=1;fillColor=#d5e8d4;strokeColor=#82b366;" parent="1" vertex="1">
          <mxGeometry x="130" y="110" width="120" height="60" as="geometry" />
        </mxCell>
        <mxCell id="Odbw6xBOLVZNWxYlY6ok-89" style="edgeStyle=orthogonalEdgeStyle;rounded=0;orthogonalLoop=1;jettySize=auto;html=1;entryX=0.5;entryY=0;entryDx=0;entryDy=0;" parent="1" source="Odbw6xBOLVZNWxYlY6ok-43" target="Odbw6xBOLVZNWxYlY6ok-88" edge="1">
          <mxGeometry relative="1" as="geometry" />
        </mxCell>
        <mxCell id="Odbw6xBOLVZNWxYlY6ok-216" value="Mechanical&lt;br&gt;Crafting" style="edgeLabel;html=1;align=center;verticalAlign=middle;resizable=0;points=[];" parent="Odbw6xBOLVZNWxYlY6ok-89" vertex="1" connectable="0">
          <mxGeometry x="0.58" y="3" relative="1" as="geometry">
            <mxPoint as="offset" />
          </mxGeometry>
        </mxCell>
        <mxCell id="Odbw6xBOLVZNWxYlY6ok-122" style="edgeStyle=orthogonalEdgeStyle;rounded=0;orthogonalLoop=1;jettySize=auto;html=1;entryX=0.5;entryY=0;entryDx=0;entryDy=0;" parent="1" source="Odbw6xBOLVZNWxYlY6ok-43" target="Odbw6xBOLVZNWxYlY6ok-121" edge="1">
          <mxGeometry relative="1" as="geometry" />
        </mxCell>
        <mxCell id="Odbw6xBOLVZNWxYlY6ok-43" value="Reinforced Plating" style="rounded=0;whiteSpace=wrap;html=1;fillColor=#d5e8d4;strokeColor=#82b366;" parent="1" vertex="1">
          <mxGeometry x="470" y="30" width="120" height="60" as="geometry" />
        </mxCell>
        <mxCell id="Odbw6xBOLVZNWxYlY6ok-47" value="Iron sheet" style="rounded=0;whiteSpace=wrap;html=1;fillColor=#d5e8d4;strokeColor=#82b366;" parent="1" vertex="1">
          <mxGeometry x="130" y="190" width="120" height="60" as="geometry" />
        </mxCell>
        <mxCell id="Odbw6xBOLVZNWxYlY6ok-48" value="" style="endArrow=none;html=1;rounded=0;" parent="1" edge="1">
          <mxGeometry width="50" height="50" relative="1" as="geometry">
            <mxPoint x="320" y="220" as="sourcePoint" />
            <mxPoint x="320" y="60" as="targetPoint" />
          </mxGeometry>
        </mxCell>
        <mxCell id="Odbw6xBOLVZNWxYlY6ok-49" value="" style="endArrow=none;html=1;rounded=0;exitX=1;exitY=0.5;exitDx=0;exitDy=0;" parent="1" source="Odbw6xBOLVZNWxYlY6ok-47" edge="1">
          <mxGeometry width="50" height="50" relative="1" as="geometry">
            <mxPoint x="340" y="230" as="sourcePoint" />
            <mxPoint x="320" y="220" as="targetPoint" />
          </mxGeometry>
        </mxCell>
        <mxCell id="Odbw6xBOLVZNWxYlY6ok-50" value="" style="endArrow=none;html=1;rounded=0;exitX=1;exitY=0.5;exitDx=0;exitDy=0;" parent="1" edge="1">
          <mxGeometry width="50" height="50" relative="1" as="geometry">
            <mxPoint x="250" y="139.47" as="sourcePoint" />
            <mxPoint x="320" y="139.47" as="targetPoint" />
          </mxGeometry>
        </mxCell>
        <mxCell id="Odbw6xBOLVZNWxYlY6ok-56" style="edgeStyle=orthogonalEdgeStyle;rounded=0;orthogonalLoop=1;jettySize=auto;html=1;entryX=0;entryY=0.5;entryDx=0;entryDy=0;" parent="1" source="Odbw6xBOLVZNWxYlY6ok-52" target="Odbw6xBOLVZNWxYlY6ok-55" edge="1">
          <mxGeometry relative="1" as="geometry" />
        </mxCell>
        <mxCell id="Odbw6xBOLVZNWxYlY6ok-57" value="Spout&lt;br&gt;lava" style="edgeLabel;html=1;align=center;verticalAlign=middle;resizable=0;points=[];" parent="Odbw6xBOLVZNWxYlY6ok-56" vertex="1" connectable="0">
          <mxGeometry x="-0.1" y="1" relative="1" as="geometry">
            <mxPoint as="offset" />
          </mxGeometry>
        </mxCell>
        <mxCell id="Odbw6xBOLVZNWxYlY6ok-52" value="Incomplete Bolt&lt;br&gt;(1/2)" style="rounded=0;whiteSpace=wrap;html=1;fillColor=#d5e8d4;strokeColor=#82b366;" parent="1" vertex="1">
          <mxGeometry x="-340" y="30" width="120" height="60" as="geometry" />
        </mxCell>
        <mxCell id="Odbw6xBOLVZNWxYlY6ok-58" style="edgeStyle=orthogonalEdgeStyle;rounded=0;orthogonalLoop=1;jettySize=auto;html=1;" parent="1" source="Odbw6xBOLVZNWxYlY6ok-55" target="Odbw6xBOLVZNWxYlY6ok-26" edge="1">
          <mxGeometry relative="1" as="geometry" />
        </mxCell>
        <mxCell id="Odbw6xBOLVZNWxYlY6ok-59" value="Press" style="edgeLabel;html=1;align=center;verticalAlign=middle;resizable=0;points=[];" parent="Odbw6xBOLVZNWxYlY6ok-58" vertex="1" connectable="0">
          <mxGeometry x="0.321" y="-1" relative="1" as="geometry">
            <mxPoint x="-59" y="-1" as="offset" />
          </mxGeometry>
        </mxCell>
        <mxCell id="Odbw6xBOLVZNWxYlY6ok-55" value="Heated Filled Bolt Cast" style="rounded=0;whiteSpace=wrap;html=1;fillColor=#d5e8d4;strokeColor=#82b366;" parent="1" vertex="1">
          <mxGeometry x="-140" y="30" width="120" height="60" as="geometry" />
        </mxCell>
        <mxCell id="Odbw6xBOLVZNWxYlY6ok-62" style="edgeStyle=orthogonalEdgeStyle;rounded=0;orthogonalLoop=1;jettySize=auto;html=1;entryX=0.5;entryY=1;entryDx=0;entryDy=0;" parent="1" source="Odbw6xBOLVZNWxYlY6ok-61" target="Odbw6xBOLVZNWxYlY6ok-24" edge="1">
          <mxGeometry relative="1" as="geometry" />
        </mxCell>
        <mxCell id="Odbw6xBOLVZNWxYlY6ok-63" value="Press" style="edgeLabel;html=1;align=center;verticalAlign=middle;resizable=0;points=[];" parent="Odbw6xBOLVZNWxYlY6ok-62" vertex="1" connectable="0">
          <mxGeometry x="-0.2086" y="-1" relative="1" as="geometry">
            <mxPoint as="offset" />
          </mxGeometry>
        </mxCell>
        <mxCell id="Odbw6xBOLVZNWxYlY6ok-61" value="Sturdy Sheet" style="rounded=0;whiteSpace=wrap;html=1;fillColor=#d5e8d4;strokeColor=#82b366;" parent="1" vertex="1">
          <mxGeometry x="-790" y="190" width="120" height="60" as="geometry" />
        </mxCell>
        <mxCell id="Odbw6xBOLVZNWxYlY6ok-86" style="edgeStyle=orthogonalEdgeStyle;rounded=0;orthogonalLoop=1;jettySize=auto;html=1;exitX=0.5;exitY=1;exitDx=0;exitDy=0;entryX=0;entryY=0.5;entryDx=0;entryDy=0;" parent="1" source="Odbw6xBOLVZNWxYlY6ok-73" target="Odbw6xBOLVZNWxYlY6ok-77" edge="1">
          <mxGeometry relative="1" as="geometry" />
        </mxCell>
        <mxCell id="Odbw6xBOLVZNWxYlY6ok-87" style="edgeStyle=orthogonalEdgeStyle;rounded=0;orthogonalLoop=1;jettySize=auto;html=1;exitX=0.5;exitY=1;exitDx=0;exitDy=0;entryX=1;entryY=0.5;entryDx=0;entryDy=0;" parent="1" source="Odbw6xBOLVZNWxYlY6ok-73" target="Odbw6xBOLVZNWxYlY6ok-81" edge="1">
          <mxGeometry relative="1" as="geometry" />
        </mxCell>
        <mxCell id="Odbw6xBOLVZNWxYlY6ok-73" value="Magnetised Cobalt" style="rounded=0;whiteSpace=wrap;html=1;" parent="1" vertex="1">
          <mxGeometry x="1240" y="520" width="120" height="60" as="geometry" />
        </mxCell>
        <mxCell id="Odbw6xBOLVZNWxYlY6ok-75" value="Steam engine" style="rounded=0;whiteSpace=wrap;html=1;fillColor=#d5e8d4;strokeColor=#82b366;" parent="1" vertex="1">
          <mxGeometry x="695" y="770" width="120" height="60" as="geometry" />
        </mxCell>
        <mxCell id="Odbw6xBOLVZNWxYlY6ok-76" value="Pressurised Fluid Tank" style="rounded=0;whiteSpace=wrap;html=1;fillColor=#d5e8d4;strokeColor=#82b366;" parent="1" vertex="1">
          <mxGeometry x="945" y="690" width="120" height="60" as="geometry" />
        </mxCell>
        <mxCell id="Odbw6xBOLVZNWxYlY6ok-77" value="Long-range Transmitter" style="rounded=0;whiteSpace=wrap;html=1;fillColor=#ffe6cc;strokeColor=#d79b00;" parent="1" vertex="1">
          <mxGeometry x="1340" y="680" width="120" height="60" as="geometry" />
        </mxCell>
        <mxCell id="Odbw6xBOLVZNWxYlY6ok-80" style="edgeStyle=orthogonalEdgeStyle;rounded=0;orthogonalLoop=1;jettySize=auto;html=1;entryX=0.5;entryY=0;entryDx=0;entryDy=0;" parent="1" source="Odbw6xBOLVZNWxYlY6ok-79" target="Odbw6xBOLVZNWxYlY6ok-77" edge="1">
          <mxGeometry relative="1" as="geometry">
            <Array as="points">
              <mxPoint x="1554" y="610" />
              <mxPoint x="1400" y="610" />
            </Array>
          </mxGeometry>
        </mxCell>
        <mxCell id="Odbw6xBOLVZNWxYlY6ok-79" value="Transmitter" style="rounded=0;whiteSpace=wrap;html=1;" parent="1" vertex="1">
          <mxGeometry x="1494" y="520" width="120" height="60" as="geometry" />
        </mxCell>
        <mxCell id="Odbw6xBOLVZNWxYlY6ok-81" value="Magnetometer" style="rounded=0;whiteSpace=wrap;html=1;fillColor=#ffe6cc;strokeColor=#d79b00;" parent="1" vertex="1">
          <mxGeometry x="1140" y="680" width="120" height="60" as="geometry" />
        </mxCell>
        <mxCell id="Odbw6xBOLVZNWxYlY6ok-88" value="Reinforced Frame" style="rounded=0;whiteSpace=wrap;html=1;" parent="1" vertex="1">
          <mxGeometry x="470" y="290" width="120" height="60" as="geometry" />
        </mxCell>
        <mxCell id="Odbw6xBOLVZNWxYlY6ok-91" style="edgeStyle=orthogonalEdgeStyle;rounded=0;orthogonalLoop=1;jettySize=auto;html=1;entryX=0;entryY=0.5;entryDx=0;entryDy=0;" parent="1" source="Odbw6xBOLVZNWxYlY6ok-90" target="Odbw6xBOLVZNWxYlY6ok-92" edge="1">
          <mxGeometry relative="1" as="geometry">
            <mxPoint x="-140" y="320" as="targetPoint" />
          </mxGeometry>
        </mxCell>
        <mxCell id="Odbw6xBOLVZNWxYlY6ok-217" value="Heated mixing" style="edgeLabel;html=1;align=center;verticalAlign=middle;resizable=0;points=[];" parent="Odbw6xBOLVZNWxYlY6ok-91" vertex="1" connectable="0">
          <mxGeometry x="-0.1681" y="-1" relative="1" as="geometry">
            <mxPoint x="3" y="-1" as="offset" />
          </mxGeometry>
        </mxCell>
        <mxCell id="Odbw6xBOLVZNWxYlY6ok-90" value="Ethylene" style="rounded=0;whiteSpace=wrap;html=1;fillColor=#d5e8d4;strokeColor=#82b366;" parent="1" vertex="1">
          <mxGeometry x="-420" y="290" width="120" height="60" as="geometry" />
        </mxCell>
        <mxCell id="Odbw6xBOLVZNWxYlY6ok-126" style="edgeStyle=orthogonalEdgeStyle;rounded=0;orthogonalLoop=1;jettySize=auto;html=1;entryX=0;entryY=0.5;entryDx=0;entryDy=0;" parent="1" source="Odbw6xBOLVZNWxYlY6ok-92" target="Odbw6xBOLVZNWxYlY6ok-125" edge="1">
          <mxGeometry relative="1" as="geometry" />
        </mxCell>
        <mxCell id="Odbw6xBOLVZNWxYlY6ok-127" value="Heated&lt;div&gt;compacting&lt;/div&gt;" style="edgeLabel;html=1;align=center;verticalAlign=middle;resizable=0;points=[];" parent="Odbw6xBOLVZNWxYlY6ok-126" vertex="1" connectable="0">
          <mxGeometry x="0.0728" y="2" relative="1" as="geometry">
            <mxPoint x="-9" y="2" as="offset" />
          </mxGeometry>
        </mxCell>
        <mxCell id="Odbw6xBOLVZNWxYlY6ok-161" style="edgeStyle=orthogonalEdgeStyle;rounded=0;orthogonalLoop=1;jettySize=auto;html=1;entryX=0.5;entryY=1;entryDx=0;entryDy=0;" parent="1" source="Odbw6xBOLVZNWxYlY6ok-92" target="Odbw6xBOLVZNWxYlY6ok-158" edge="1">
          <mxGeometry relative="1" as="geometry" />
        </mxCell>
        <mxCell id="Odbw6xBOLVZNWxYlY6ok-162" value="Crushing" style="edgeLabel;html=1;align=center;verticalAlign=middle;resizable=0;points=[];" parent="Odbw6xBOLVZNWxYlY6ok-161" vertex="1" connectable="0">
          <mxGeometry x="0.05" y="-4" relative="1" as="geometry">
            <mxPoint x="-4" as="offset" />
          </mxGeometry>
        </mxCell>
        <mxCell id="Odbw6xBOLVZNWxYlY6ok-92" value="Polyethylene Beads" style="rounded=0;whiteSpace=wrap;html=1;fillColor=#d5e8d4;strokeColor=#82b366;" parent="1" vertex="1">
          <mxGeometry x="-140" y="290" width="120" height="60" as="geometry" />
        </mxCell>
        <mxCell id="Odbw6xBOLVZNWxYlY6ok-95" value="Long-range Transmitter" style="rounded=0;whiteSpace=wrap;html=1;" parent="1" vertex="1">
          <mxGeometry x="945" y="770" width="120" height="60" as="geometry" />
        </mxCell>
        <mxCell id="Odbw6xBOLVZNWxYlY6ok-96" value="Reinforced Frame" style="rounded=0;whiteSpace=wrap;html=1;" parent="1" vertex="1">
          <mxGeometry x="695" y="690" width="120" height="60" as="geometry" />
        </mxCell>
        <mxCell id="Odbw6xBOLVZNWxYlY6ok-97" value="Computation Core" style="rounded=0;whiteSpace=wrap;html=1;fillColor=#ffe6cc;strokeColor=#d79b00;" parent="1" vertex="1">
          <mxGeometry x="695" y="610" width="120" height="60" as="geometry" />
        </mxCell>
        <mxCell id="Odbw6xBOLVZNWxYlY6ok-99" value="Gearbox" style="rounded=0;whiteSpace=wrap;html=1;fillColor=#d5e8d4;strokeColor=#82b366;" parent="1" vertex="1">
          <mxGeometry x="945" y="610" width="120" height="60" as="geometry" />
        </mxCell>
        <mxCell id="Odbw6xBOLVZNWxYlY6ok-101" style="edgeStyle=orthogonalEdgeStyle;rounded=0;orthogonalLoop=1;jettySize=auto;html=1;exitX=0.5;exitY=1;exitDx=0;exitDy=0;entryX=0.5;entryY=0;entryDx=0;entryDy=0;" parent="1" source="Odbw6xBOLVZNWxYlY6ok-100" target="Odbw6xBOLVZNWxYlY6ok-1" edge="1">
          <mxGeometry relative="1" as="geometry">
            <mxPoint x="914.8275862068967" y="890" as="targetPoint" />
          </mxGeometry>
        </mxCell>
        <mxCell id="Odbw6xBOLVZNWxYlY6ok-168" value="Mechanical Craftng" style="edgeLabel;html=1;align=center;verticalAlign=middle;resizable=0;points=[];" parent="Odbw6xBOLVZNWxYlY6ok-101" vertex="1" connectable="0">
          <mxGeometry x="0.755" y="3" relative="1" as="geometry">
            <mxPoint as="offset" />
          </mxGeometry>
        </mxCell>
        <mxCell id="Odbw6xBOLVZNWxYlY6ok-100" value="Belt" style="rounded=0;whiteSpace=wrap;html=1;fillColor=#d5e8d4;strokeColor=#82b366;" parent="1" vertex="1">
          <mxGeometry x="815" y="510" width="130" height="60" as="geometry" />
        </mxCell>
        <mxCell id="Odbw6xBOLVZNWxYlY6ok-103" value="" style="endArrow=none;html=1;rounded=0;entryX=0;entryY=0.5;entryDx=0;entryDy=0;exitX=1;exitY=0.5;exitDx=0;exitDy=0;" parent="1" edge="1">
          <mxGeometry width="50" height="50" relative="1" as="geometry">
            <mxPoint x="815" y="639.71" as="sourcePoint" />
            <mxPoint x="945" y="639.71" as="targetPoint" />
          </mxGeometry>
        </mxCell>
        <mxCell id="Odbw6xBOLVZNWxYlY6ok-104" value="" style="endArrow=none;html=1;rounded=0;entryX=0;entryY=0.5;entryDx=0;entryDy=0;exitX=1;exitY=0.5;exitDx=0;exitDy=0;" parent="1" edge="1">
          <mxGeometry width="50" height="50" relative="1" as="geometry">
            <mxPoint x="815" y="719.71" as="sourcePoint" />
            <mxPoint x="945" y="719.71" as="targetPoint" />
          </mxGeometry>
        </mxCell>
        <mxCell id="Odbw6xBOLVZNWxYlY6ok-105" value="" style="endArrow=none;html=1;rounded=0;entryX=0;entryY=0.5;entryDx=0;entryDy=0;exitX=1;exitY=0.5;exitDx=0;exitDy=0;" parent="1" edge="1">
          <mxGeometry width="50" height="50" relative="1" as="geometry">
            <mxPoint x="815" y="799.71" as="sourcePoint" />
            <mxPoint x="945" y="799.71" as="targetPoint" />
          </mxGeometry>
        </mxCell>
        <mxCell id="Odbw6xBOLVZNWxYlY6ok-112" style="edgeStyle=orthogonalEdgeStyle;rounded=0;orthogonalLoop=1;jettySize=auto;html=1;entryX=0;entryY=0.5;entryDx=0;entryDy=0;" parent="1" source="Odbw6xBOLVZNWxYlY6ok-110" target="Odbw6xBOLVZNWxYlY6ok-111" edge="1">
          <mxGeometry relative="1" as="geometry" />
        </mxCell>
        <mxCell id="Odbw6xBOLVZNWxYlY6ok-211" value="Heated compacting" style="edgeLabel;html=1;align=center;verticalAlign=middle;resizable=0;points=[];" parent="Odbw6xBOLVZNWxYlY6ok-112" vertex="1" connectable="0">
          <mxGeometry x="-0.1655" y="-3" relative="1" as="geometry">
            <mxPoint as="offset" />
          </mxGeometry>
        </mxCell>
        <mxCell id="Odbw6xBOLVZNWxYlY6ok-110" value="Naphtha" style="rounded=0;whiteSpace=wrap;html=1;fillColor=#d5e8d4;strokeColor=#82b366;" parent="1" vertex="1">
          <mxGeometry x="-790" y="390" width="120" height="60" as="geometry" />
        </mxCell>
        <mxCell id="Odbw6xBOLVZNWxYlY6ok-114" style="edgeStyle=orthogonalEdgeStyle;rounded=0;orthogonalLoop=1;jettySize=auto;html=1;entryX=0;entryY=0.5;entryDx=0;entryDy=0;" parent="1" source="Odbw6xBOLVZNWxYlY6ok-111" target="Odbw6xBOLVZNWxYlY6ok-113" edge="1">
          <mxGeometry relative="1" as="geometry" />
        </mxCell>
        <mxCell id="Odbw6xBOLVZNWxYlY6ok-169" value="Press" style="edgeLabel;html=1;align=center;verticalAlign=middle;resizable=0;points=[];" parent="Odbw6xBOLVZNWxYlY6ok-114" vertex="1" connectable="0">
          <mxGeometry x="-0.2069" y="-1" relative="1" as="geometry">
            <mxPoint as="offset" />
          </mxGeometry>
        </mxCell>
        <mxCell id="Odbw6xBOLVZNWxYlY6ok-111" value="Rubber" style="rounded=0;whiteSpace=wrap;html=1;fillColor=#d5e8d4;strokeColor=#82b366;" parent="1" vertex="1">
          <mxGeometry x="-470" y="390" width="120" height="60" as="geometry" />
        </mxCell>
        <mxCell id="Odbw6xBOLVZNWxYlY6ok-167" style="edgeStyle=orthogonalEdgeStyle;rounded=0;orthogonalLoop=1;jettySize=auto;html=1;entryX=0.5;entryY=1;entryDx=0;entryDy=0;" parent="1" source="Odbw6xBOLVZNWxYlY6ok-113" target="Odbw6xBOLVZNWxYlY6ok-88" edge="1">
          <mxGeometry relative="1" as="geometry">
            <Array as="points">
              <mxPoint x="530" y="420" />
            </Array>
          </mxGeometry>
        </mxCell>
        <mxCell id="Odbw6xBOLVZNWxYlY6ok-113" value="Rubber sheet" style="rounded=0;whiteSpace=wrap;html=1;fillColor=#d5e8d4;strokeColor=#82b366;" parent="1" vertex="1">
          <mxGeometry x="-260" y="390" width="120" height="60" as="geometry" />
        </mxCell>
        <mxCell id="Odbw6xBOLVZNWxYlY6ok-118" style="edgeStyle=orthogonalEdgeStyle;rounded=0;orthogonalLoop=1;jettySize=auto;html=1;entryX=0;entryY=0.5;entryDx=0;entryDy=0;exitX=1;exitY=0.75;exitDx=0;exitDy=0;" parent="1" source="Odbw6xBOLVZNWxYlY6ok-116" target="Odbw6xBOLVZNWxYlY6ok-117" edge="1">
          <mxGeometry relative="1" as="geometry" />
        </mxCell>
        <mxCell id="Odbw6xBOLVZNWxYlY6ok-191" value="Spouting" style="edgeLabel;html=1;align=center;verticalAlign=middle;resizable=0;points=[];" parent="Odbw6xBOLVZNWxYlY6ok-118" vertex="1" connectable="0">
          <mxGeometry x="-0.0341" y="-2" relative="1" as="geometry">
            <mxPoint as="offset" />
          </mxGeometry>
        </mxCell>
        <mxCell id="Odbw6xBOLVZNWxYlY6ok-139" style="edgeStyle=orthogonalEdgeStyle;rounded=0;orthogonalLoop=1;jettySize=auto;html=1;exitX=1.002;exitY=0.33;exitDx=0;exitDy=0;entryX=0;entryY=0.5;entryDx=0;entryDy=0;exitPerimeter=0;" parent="1" source="Odbw6xBOLVZNWxYlY6ok-116" target="Odbw6xBOLVZNWxYlY6ok-140" edge="1">
          <mxGeometry relative="1" as="geometry">
            <mxPoint x="-560" y="625.047619047619" as="targetPoint" />
            <Array as="points">
              <mxPoint x="-610" y="630" />
              <mxPoint x="-610" y="630" />
            </Array>
          </mxGeometry>
        </mxCell>
        <mxCell id="Odbw6xBOLVZNWxYlY6ok-196" value="Compacting" style="edgeLabel;html=1;align=center;verticalAlign=middle;resizable=0;points=[];" parent="Odbw6xBOLVZNWxYlY6ok-139" vertex="1" connectable="0">
          <mxGeometry x="-0.0792" y="1" relative="1" as="geometry">
            <mxPoint as="offset" />
          </mxGeometry>
        </mxCell>
        <mxCell id="Odbw6xBOLVZNWxYlY6ok-116" value="Kerosene" style="rounded=0;whiteSpace=wrap;html=1;fillColor=#d5e8d4;strokeColor=#82b366;" parent="1" vertex="1">
          <mxGeometry x="-790" y="610" width="120" height="60" as="geometry" />
        </mxCell>
        <mxCell id="Odbw6xBOLVZNWxYlY6ok-117" value="Spicy Blaze Cake" style="rounded=0;whiteSpace=wrap;html=1;fillColor=#d5e8d4;strokeColor=#82b366;" parent="1" vertex="1">
          <mxGeometry x="-560" y="720" width="120" height="60" as="geometry" />
        </mxCell>
        <mxCell id="Odbw6xBOLVZNWxYlY6ok-120" style="edgeStyle=orthogonalEdgeStyle;rounded=0;orthogonalLoop=1;jettySize=auto;html=1;entryX=0;entryY=0.5;entryDx=0;entryDy=0;" parent="1" source="Odbw6xBOLVZNWxYlY6ok-119" target="Odbw6xBOLVZNWxYlY6ok-117" edge="1">
          <mxGeometry relative="1" as="geometry" />
        </mxCell>
        <mxCell id="Odbw6xBOLVZNWxYlY6ok-119" value="Blaze Cake Base" style="rounded=0;whiteSpace=wrap;html=1;fillColor=#d5e8d4;strokeColor=#82b366;" parent="1" vertex="1">
          <mxGeometry x="-790" y="720" width="120" height="60" as="geometry" />
        </mxCell>
        <mxCell id="Odbw6xBOLVZNWxYlY6ok-215" style="edgeStyle=orthogonalEdgeStyle;rounded=0;orthogonalLoop=1;jettySize=auto;html=1;" parent="1" source="Odbw6xBOLVZNWxYlY6ok-121" target="Odbw6xBOLVZNWxYlY6ok-213" edge="1">
          <mxGeometry relative="1" as="geometry" />
        </mxCell>
        <mxCell id="Odbw6xBOLVZNWxYlY6ok-275" style="edgeStyle=orthogonalEdgeStyle;rounded=0;orthogonalLoop=1;jettySize=auto;html=1;" parent="1" source="Odbw6xBOLVZNWxYlY6ok-121" target="Odbw6xBOLVZNWxYlY6ok-274" edge="1">
          <mxGeometry relative="1" as="geometry" />
        </mxCell>
        <mxCell id="Odbw6xBOLVZNWxYlY6ok-278" style="edgeStyle=orthogonalEdgeStyle;rounded=0;orthogonalLoop=1;jettySize=auto;html=1;entryX=0.5;entryY=0;entryDx=0;entryDy=0;" parent="1" source="Odbw6xBOLVZNWxYlY6ok-121" target="Odbw6xBOLVZNWxYlY6ok-276" edge="1">
          <mxGeometry relative="1" as="geometry" />
        </mxCell>
        <mxCell id="Odbw6xBOLVZNWxYlY6ok-279" style="edgeStyle=orthogonalEdgeStyle;rounded=0;orthogonalLoop=1;jettySize=auto;html=1;" parent="1" source="Odbw6xBOLVZNWxYlY6ok-121" target="Odbw6xBOLVZNWxYlY6ok-277" edge="1">
          <mxGeometry relative="1" as="geometry" />
        </mxCell>
        <mxCell id="Odbw6xBOLVZNWxYlY6ok-121" value="Pressurised Fluid Tank" style="rounded=0;whiteSpace=wrap;html=1;fillColor=#d5e8d4;strokeColor=#82b366;" parent="1" vertex="1">
          <mxGeometry x="620" y="110" width="120" height="60" as="geometry" />
        </mxCell>
        <mxCell id="Odbw6xBOLVZNWxYlY6ok-124" style="edgeStyle=orthogonalEdgeStyle;rounded=0;orthogonalLoop=1;jettySize=auto;html=1;entryX=0.5;entryY=0;entryDx=0;entryDy=0;" parent="1" source="Odbw6xBOLVZNWxYlY6ok-123" target="Odbw6xBOLVZNWxYlY6ok-121" edge="1">
          <mxGeometry relative="1" as="geometry" />
        </mxCell>
        <mxCell id="Odbw6xBOLVZNWxYlY6ok-123" value="Fluid Tank" style="rounded=0;whiteSpace=wrap;html=1;fillColor=#d5e8d4;strokeColor=#82b366;" parent="1" vertex="1">
          <mxGeometry x="780" y="30" width="120" height="60" as="geometry" />
        </mxCell>
        <mxCell id="Odbw6xBOLVZNWxYlY6ok-129" style="edgeStyle=orthogonalEdgeStyle;rounded=0;orthogonalLoop=1;jettySize=auto;html=1;entryX=0;entryY=0.5;entryDx=0;entryDy=0;" parent="1" source="Odbw6xBOLVZNWxYlY6ok-125" target="Odbw6xBOLVZNWxYlY6ok-128" edge="1">
          <mxGeometry relative="1" as="geometry" />
        </mxCell>
        <mxCell id="Odbw6xBOLVZNWxYlY6ok-130" value="Sawing" style="edgeLabel;html=1;align=center;verticalAlign=middle;resizable=0;points=[];" parent="Odbw6xBOLVZNWxYlY6ok-129" vertex="1" connectable="0">
          <mxGeometry x="-0.1429" y="1" relative="1" as="geometry">
            <mxPoint as="offset" />
          </mxGeometry>
        </mxCell>
        <mxCell id="Odbw6xBOLVZNWxYlY6ok-125" value="Polyethylene Sheet" style="rounded=0;whiteSpace=wrap;html=1;fillColor=#d5e8d4;strokeColor=#82b366;" parent="1" vertex="1">
          <mxGeometry x="130" y="290" width="120" height="60" as="geometry" />
        </mxCell>
        <mxCell id="Odbw6xBOLVZNWxYlY6ok-131" style="edgeStyle=orthogonalEdgeStyle;rounded=0;orthogonalLoop=1;jettySize=auto;html=1;" parent="1" source="Odbw6xBOLVZNWxYlY6ok-128" target="Odbw6xBOLVZNWxYlY6ok-88" edge="1">
          <mxGeometry relative="1" as="geometry" />
        </mxCell>
        <mxCell id="Odbw6xBOLVZNWxYlY6ok-128" value="Polyethylene Rod" style="rounded=0;whiteSpace=wrap;html=1;fillColor=#d5e8d4;strokeColor=#82b366;" parent="1" vertex="1">
          <mxGeometry x="310" y="290" width="120" height="60" as="geometry" />
        </mxCell>
        <mxCell id="icsWugEK6nNElAmf-cyU-23" style="edgeStyle=orthogonalEdgeStyle;rounded=0;orthogonalLoop=1;jettySize=auto;html=1;entryX=0;entryY=0.5;entryDx=0;entryDy=0;" edge="1" parent="1" source="Odbw6xBOLVZNWxYlY6ok-132" target="icsWugEK6nNElAmf-cyU-5">
          <mxGeometry relative="1" as="geometry" />
        </mxCell>
        <mxCell id="icsWugEK6nNElAmf-cyU-24" value="Cracking&lt;br&gt;Column" style="edgeLabel;html=1;align=center;verticalAlign=middle;resizable=0;points=[];" vertex="1" connectable="0" parent="icsWugEK6nNElAmf-cyU-23">
          <mxGeometry x="-0.0167" y="-3" relative="1" as="geometry">
            <mxPoint x="-4" y="-3" as="offset" />
          </mxGeometry>
        </mxCell>
        <mxCell id="Odbw6xBOLVZNWxYlY6ok-132" value="Hot Bitumen" style="rounded=0;whiteSpace=wrap;html=1;" parent="1" vertex="1">
          <mxGeometry x="-207" y="660" width="120" height="60" as="geometry" />
        </mxCell>
        <mxCell id="icsWugEK6nNElAmf-cyU-32" style="edgeStyle=orthogonalEdgeStyle;rounded=0;orthogonalLoop=1;jettySize=auto;html=1;entryX=1;entryY=0.75;entryDx=0;entryDy=0;" edge="1" parent="1" source="Odbw6xBOLVZNWxYlY6ok-133" target="Odbw6xBOLVZNWxYlY6ok-137">
          <mxGeometry relative="1" as="geometry">
            <Array as="points">
              <mxPoint x="303" y="920" />
              <mxPoint x="303" y="705" />
            </Array>
          </mxGeometry>
        </mxCell>
        <mxCell id="icsWugEK6nNElAmf-cyU-33" value="Cracking&lt;br&gt;Column" style="edgeLabel;html=1;align=center;verticalAlign=middle;resizable=0;points=[];" vertex="1" connectable="0" parent="icsWugEK6nNElAmf-cyU-32">
          <mxGeometry x="0.1882" relative="1" as="geometry">
            <mxPoint y="72" as="offset" />
          </mxGeometry>
        </mxCell>
        <mxCell id="Odbw6xBOLVZNWxYlY6ok-133" value="Naphtha" style="rounded=0;whiteSpace=wrap;html=1;" parent="1" vertex="1">
          <mxGeometry x="163" y="890" width="120" height="60" as="geometry" />
        </mxCell>
        <mxCell id="icsWugEK6nNElAmf-cyU-22" style="edgeStyle=orthogonalEdgeStyle;rounded=0;orthogonalLoop=1;jettySize=auto;html=1;" edge="1" parent="1" source="Odbw6xBOLVZNWxYlY6ok-134" target="icsWugEK6nNElAmf-cyU-21">
          <mxGeometry relative="1" as="geometry" />
        </mxCell>
        <mxCell id="icsWugEK6nNElAmf-cyU-30" style="edgeStyle=orthogonalEdgeStyle;rounded=0;orthogonalLoop=1;jettySize=auto;html=1;entryX=0;entryY=0.5;entryDx=0;entryDy=0;" edge="1" parent="1" source="Odbw6xBOLVZNWxYlY6ok-134" target="Odbw6xBOLVZNWxYlY6ok-133">
          <mxGeometry relative="1" as="geometry" />
        </mxCell>
        <mxCell id="icsWugEK6nNElAmf-cyU-31" value="Cracking&lt;br&gt;Column" style="edgeLabel;html=1;align=center;verticalAlign=middle;resizable=0;points=[];" vertex="1" connectable="0" parent="icsWugEK6nNElAmf-cyU-30">
          <mxGeometry x="0.33" y="3" relative="1" as="geometry">
            <mxPoint x="-6" y="3" as="offset" />
          </mxGeometry>
        </mxCell>
        <mxCell id="Odbw6xBOLVZNWxYlY6ok-134" value="Raw Lubricating Oil" style="rounded=0;whiteSpace=wrap;html=1;" parent="1" vertex="1">
          <mxGeometry x="-27" y="890" width="120" height="60" as="geometry" />
        </mxCell>
        <mxCell id="icsWugEK6nNElAmf-cyU-28" style="edgeStyle=orthogonalEdgeStyle;rounded=0;orthogonalLoop=1;jettySize=auto;html=1;entryX=0;entryY=0.5;entryDx=0;entryDy=0;" edge="1" parent="1" source="Odbw6xBOLVZNWxYlY6ok-135" target="Odbw6xBOLVZNWxYlY6ok-134">
          <mxGeometry relative="1" as="geometry" />
        </mxCell>
        <mxCell id="icsWugEK6nNElAmf-cyU-29" value="Cracking&lt;br&gt;Column" style="edgeLabel;html=1;align=center;verticalAlign=middle;resizable=0;points=[];" vertex="1" connectable="0" parent="icsWugEK6nNElAmf-cyU-28">
          <mxGeometry x="-0.1609" y="-2" relative="1" as="geometry">
            <mxPoint as="offset" />
          </mxGeometry>
        </mxCell>
        <mxCell id="Odbw6xBOLVZNWxYlY6ok-135" value="Kerosene" style="rounded=0;whiteSpace=wrap;html=1;" parent="1" vertex="1">
          <mxGeometry x="-207" y="890" width="120" height="60" as="geometry" />
        </mxCell>
        <mxCell id="icsWugEK6nNElAmf-cyU-8" style="edgeStyle=orthogonalEdgeStyle;rounded=0;orthogonalLoop=1;jettySize=auto;html=1;entryX=0.5;entryY=1;entryDx=0;entryDy=0;" edge="1" parent="1" source="Odbw6xBOLVZNWxYlY6ok-137" target="Odbw6xBOLVZNWxYlY6ok-149">
          <mxGeometry relative="1" as="geometry">
            <Array as="points">
              <mxPoint x="407" y="690" />
            </Array>
          </mxGeometry>
        </mxCell>
        <mxCell id="icsWugEK6nNElAmf-cyU-19" value="Steam reforming" style="edgeLabel;html=1;align=center;verticalAlign=middle;resizable=0;points=[];" vertex="1" connectable="0" parent="icsWugEK6nNElAmf-cyU-8">
          <mxGeometry x="0.2447" y="2" relative="1" as="geometry">
            <mxPoint x="15" y="12" as="offset" />
          </mxGeometry>
        </mxCell>
        <mxCell id="icsWugEK6nNElAmf-cyU-12" style="edgeStyle=orthogonalEdgeStyle;rounded=0;orthogonalLoop=1;jettySize=auto;html=1;entryX=0.5;entryY=0;entryDx=0;entryDy=0;" edge="1" parent="1" source="Odbw6xBOLVZNWxYlY6ok-137" target="Odbw6xBOLVZNWxYlY6ok-280">
          <mxGeometry relative="1" as="geometry" />
        </mxCell>
        <mxCell id="icsWugEK6nNElAmf-cyU-20" value="Cracking Column" style="edgeLabel;html=1;align=center;verticalAlign=middle;resizable=0;points=[];" vertex="1" connectable="0" parent="icsWugEK6nNElAmf-cyU-12">
          <mxGeometry x="-0.0765" y="1" relative="1" as="geometry">
            <mxPoint as="offset" />
          </mxGeometry>
        </mxCell>
        <mxCell id="Odbw6xBOLVZNWxYlY6ok-137" value="LPG" style="rounded=0;whiteSpace=wrap;html=1;" parent="1" vertex="1">
          <mxGeometry x="163" y="660" width="120" height="60" as="geometry" />
        </mxCell>
        <mxCell id="Odbw6xBOLVZNWxYlY6ok-140" value="Solid Fuel" style="rounded=0;whiteSpace=wrap;html=1;fillColor=#d5e8d4;strokeColor=#82b366;" parent="1" vertex="1">
          <mxGeometry x="-420" y="600" width="120" height="60" as="geometry" />
        </mxCell>
        <mxCell id="Odbw6xBOLVZNWxYlY6ok-149" value="Hydrogen Gas" style="rounded=0;whiteSpace=wrap;html=1;" parent="1" vertex="1">
          <mxGeometry x="347" y="580" width="120" height="60" as="geometry" />
        </mxCell>
        <mxCell id="Odbw6xBOLVZNWxYlY6ok-158" value="Microplastics" style="rounded=0;whiteSpace=wrap;html=1;fillColor=#d5e8d4;strokeColor=#82b366;" parent="1" vertex="1">
          <mxGeometry x="-140" y="170" width="120" height="60" as="geometry" />
        </mxCell>
        <mxCell id="Odbw6xBOLVZNWxYlY6ok-165" style="edgeStyle=orthogonalEdgeStyle;rounded=0;orthogonalLoop=1;jettySize=auto;html=1;entryX=1;entryY=0.5;entryDx=0;entryDy=0;" parent="1" source="Odbw6xBOLVZNWxYlY6ok-164" target="Odbw6xBOLVZNWxYlY6ok-88" edge="1">
          <mxGeometry relative="1" as="geometry" />
        </mxCell>
        <mxCell id="Odbw6xBOLVZNWxYlY6ok-164" value="Bolt" style="rounded=0;whiteSpace=wrap;html=1;fillColor=#d5e8d4;strokeColor=#82b366;" parent="1" vertex="1">
          <mxGeometry x="640" y="410" width="120" height="60" as="geometry" />
        </mxCell>
        <mxCell id="Odbw6xBOLVZNWxYlY6ok-172" style="edgeStyle=orthogonalEdgeStyle;rounded=0;orthogonalLoop=1;jettySize=auto;html=1;entryX=1;entryY=0.5;entryDx=0;entryDy=0;" parent="1" source="Odbw6xBOLVZNWxYlY6ok-171" target="Odbw6xBOLVZNWxYlY6ok-88" edge="1">
          <mxGeometry relative="1" as="geometry" />
        </mxCell>
        <mxCell id="Odbw6xBOLVZNWxYlY6ok-171" value="Cobalt casing" style="rounded=0;whiteSpace=wrap;html=1;fillColor=#d5e8d4;strokeColor=#82b366;" parent="1" vertex="1">
          <mxGeometry x="640" y="290" width="120" height="60" as="geometry" />
        </mxCell>
        <mxCell id="Odbw6xBOLVZNWxYlY6ok-174" value="Prepared Satellite" style="rounded=0;whiteSpace=wrap;html=1;" parent="1" vertex="1">
          <mxGeometry x="990" y="910" width="120" height="60" as="geometry" />
        </mxCell>
        <mxCell id="Odbw6xBOLVZNWxYlY6ok-176" style="edgeStyle=orthogonalEdgeStyle;rounded=0;orthogonalLoop=1;jettySize=auto;html=1;entryX=0.5;entryY=1;entryDx=0;entryDy=0;" parent="1" source="Odbw6xBOLVZNWxYlY6ok-175" target="Odbw6xBOLVZNWxYlY6ok-174" edge="1">
          <mxGeometry relative="1" as="geometry" />
        </mxCell>
        <mxCell id="Odbw6xBOLVZNWxYlY6ok-175" value="Module" style="rounded=0;whiteSpace=wrap;html=1;" parent="1" vertex="1">
          <mxGeometry x="990" y="1180" width="120" height="60" as="geometry" />
        </mxCell>
        <mxCell id="Odbw6xBOLVZNWxYlY6ok-183" style="edgeStyle=orthogonalEdgeStyle;rounded=0;orthogonalLoop=1;jettySize=auto;html=1;exitX=0.5;exitY=0;exitDx=0;exitDy=0;entryX=0.5;entryY=1;entryDx=0;entryDy=0;endArrow=none;endFill=0;" parent="1" source="Odbw6xBOLVZNWxYlY6ok-177" target="Odbw6xBOLVZNWxYlY6ok-175" edge="1">
          <mxGeometry relative="1" as="geometry">
            <Array as="points">
              <mxPoint x="720" y="1280" />
              <mxPoint x="1050" y="1280" />
            </Array>
          </mxGeometry>
        </mxCell>
        <mxCell id="Odbw6xBOLVZNWxYlY6ok-177" value="Rail Observation Module" style="rounded=0;whiteSpace=wrap;html=1;fillColor=#ffe6cc;strokeColor=#d79b00;" parent="1" vertex="1">
          <mxGeometry x="660" y="1330" width="120" height="60" as="geometry" />
        </mxCell>
        <mxCell id="Odbw6xBOLVZNWxYlY6ok-185" style="edgeStyle=orthogonalEdgeStyle;rounded=0;orthogonalLoop=1;jettySize=auto;html=1;endArrow=none;endFill=0;" parent="1" source="Odbw6xBOLVZNWxYlY6ok-178" edge="1">
          <mxGeometry relative="1" as="geometry">
            <mxPoint x="1050" y="1250" as="targetPoint" />
            <Array as="points">
              <mxPoint x="885" y="1280" />
              <mxPoint x="1051" y="1280" />
              <mxPoint x="1051" y="1240" />
            </Array>
          </mxGeometry>
        </mxCell>
        <mxCell id="Odbw6xBOLVZNWxYlY6ok-178" value="Magnetometer Module" style="rounded=0;whiteSpace=wrap;html=1;fillColor=#ffe6cc;strokeColor=#d79b00;" parent="1" vertex="1">
          <mxGeometry x="825" y="1330" width="120" height="60" as="geometry" />
        </mxCell>
        <mxCell id="Odbw6xBOLVZNWxYlY6ok-182" style="edgeStyle=orthogonalEdgeStyle;rounded=0;orthogonalLoop=1;jettySize=auto;html=1;entryX=0.5;entryY=1;entryDx=0;entryDy=0;endArrow=none;endFill=0;" parent="1" source="Odbw6xBOLVZNWxYlY6ok-179" target="Odbw6xBOLVZNWxYlY6ok-175" edge="1">
          <mxGeometry relative="1" as="geometry" />
        </mxCell>
        <mxCell id="Odbw6xBOLVZNWxYlY6ok-179" value="Geographic Analysis Module" style="rounded=0;whiteSpace=wrap;html=1;fillColor=#ffe6cc;strokeColor=#d79b00;" parent="1" vertex="1">
          <mxGeometry x="990" y="1330" width="120" height="60" as="geometry" />
        </mxCell>
        <mxCell id="Odbw6xBOLVZNWxYlY6ok-184" style="edgeStyle=orthogonalEdgeStyle;rounded=0;orthogonalLoop=1;jettySize=auto;html=1;entryX=0.5;entryY=1;entryDx=0;entryDy=0;endArrow=none;endFill=0;" parent="1" source="Odbw6xBOLVZNWxYlY6ok-180" target="Odbw6xBOLVZNWxYlY6ok-175" edge="1">
          <mxGeometry relative="1" as="geometry">
            <mxPoint x="1050" y="1250" as="targetPoint" />
            <Array as="points">
              <mxPoint x="1370" y="1280" />
              <mxPoint x="1050" y="1280" />
            </Array>
          </mxGeometry>
        </mxCell>
        <mxCell id="Odbw6xBOLVZNWxYlY6ok-180" value="Effect Distributor Module" style="rounded=0;whiteSpace=wrap;html=1;fillColor=#ffe6cc;strokeColor=#d79b00;" parent="1" vertex="1">
          <mxGeometry x="1310" y="1330" width="120" height="60" as="geometry" />
        </mxCell>
        <mxCell id="Odbw6xBOLVZNWxYlY6ok-186" style="edgeStyle=orthogonalEdgeStyle;rounded=0;orthogonalLoop=1;jettySize=auto;html=1;endArrow=none;endFill=0;" parent="1" source="Odbw6xBOLVZNWxYlY6ok-181" edge="1">
          <mxGeometry relative="1" as="geometry">
            <mxPoint x="1050" y="1240" as="targetPoint" />
            <Array as="points">
              <mxPoint x="1210" y="1280" />
              <mxPoint x="1051" y="1280" />
              <mxPoint x="1051" y="1240" />
            </Array>
          </mxGeometry>
        </mxCell>
        <mxCell id="Odbw6xBOLVZNWxYlY6ok-181" value="Locational Analysis Module&lt;br&gt;(EXPENSIVE)" style="rounded=0;whiteSpace=wrap;html=1;fillColor=#ffe6cc;strokeColor=#d79b00;" parent="1" vertex="1">
          <mxGeometry x="1150" y="1330" width="120" height="60" as="geometry" />
        </mxCell>
        <mxCell id="Odbw6xBOLVZNWxYlY6ok-187" value="Locational Analysis&lt;div&gt;(From Locational Analysis Module)&lt;/div&gt;" style="rounded=0;whiteSpace=wrap;html=1;" parent="1" vertex="1">
          <mxGeometry x="1264" y="1090" width="120" height="60" as="geometry" />
        </mxCell>
        <mxCell id="Odbw6xBOLVZNWxYlY6ok-188" value="" style="endArrow=classic;html=1;rounded=0;entryX=0;entryY=0.5;entryDx=0;entryDy=0;" parent="1" target="Odbw6xBOLVZNWxYlY6ok-22" edge="1">
          <mxGeometry width="50" height="50" relative="1" as="geometry">
            <mxPoint x="1234" y="1210" as="sourcePoint" />
            <mxPoint x="1258" y="1199" as="targetPoint" />
          </mxGeometry>
        </mxCell>
        <mxCell id="Odbw6xBOLVZNWxYlY6ok-195" style="edgeStyle=orthogonalEdgeStyle;rounded=0;orthogonalLoop=1;jettySize=auto;html=1;entryX=0;entryY=0.5;entryDx=0;entryDy=0;" parent="1" source="Odbw6xBOLVZNWxYlY6ok-192" target="Odbw6xBOLVZNWxYlY6ok-140" edge="1">
          <mxGeometry relative="1" as="geometry">
            <Array as="points">
              <mxPoint x="-500" y="630" />
            </Array>
          </mxGeometry>
        </mxCell>
        <mxCell id="Odbw6xBOLVZNWxYlY6ok-192" value="Charcoal" style="rounded=0;whiteSpace=wrap;html=1;fillColor=#d5e8d4;strokeColor=#82b366;" parent="1" vertex="1">
          <mxGeometry x="-560" y="650" width="120" height="60" as="geometry" />
        </mxCell>
        <mxCell id="Odbw6xBOLVZNWxYlY6ok-199" style="edgeStyle=orthogonalEdgeStyle;rounded=0;orthogonalLoop=1;jettySize=auto;html=1;entryX=1;entryY=0.5;entryDx=0;entryDy=0;" parent="1" source="Odbw6xBOLVZNWxYlY6ok-198" target="Odbw6xBOLVZNWxYlY6ok-171" edge="1">
          <mxGeometry relative="1" as="geometry" />
        </mxCell>
        <mxCell id="Odbw6xBOLVZNWxYlY6ok-198" value="Tuff Tiles" style="rounded=0;whiteSpace=wrap;html=1;fillColor=#d5e8d4;strokeColor=#82b366;" parent="1" vertex="1">
          <mxGeometry x="840" y="370" width="120" height="60" as="geometry" />
        </mxCell>
        <mxCell id="Odbw6xBOLVZNWxYlY6ok-201" style="edgeStyle=orthogonalEdgeStyle;rounded=0;orthogonalLoop=1;jettySize=auto;html=1;entryX=1;entryY=0.5;entryDx=0;entryDy=0;" parent="1" source="Odbw6xBOLVZNWxYlY6ok-200" target="Odbw6xBOLVZNWxYlY6ok-171" edge="1">
          <mxGeometry relative="1" as="geometry" />
        </mxCell>
        <mxCell id="Odbw6xBOLVZNWxYlY6ok-200" value="Cobalt Ingot" style="rounded=0;whiteSpace=wrap;html=1;fillColor=#d5e8d4;strokeColor=#82b366;" parent="1" vertex="1">
          <mxGeometry x="840" y="290" width="120" height="60" as="geometry" />
        </mxCell>
        <mxCell id="Odbw6xBOLVZNWxYlY6ok-203" style="edgeStyle=orthogonalEdgeStyle;rounded=0;orthogonalLoop=1;jettySize=auto;html=1;entryX=1;entryY=0.5;entryDx=0;entryDy=0;" parent="1" source="Odbw6xBOLVZNWxYlY6ok-202" target="Odbw6xBOLVZNWxYlY6ok-198" edge="1">
          <mxGeometry relative="1" as="geometry" />
        </mxCell>
        <mxCell id="Odbw6xBOLVZNWxYlY6ok-202" value="Tuff" style="rounded=0;whiteSpace=wrap;html=1;fillColor=#d5e8d4;strokeColor=#82b366;" parent="1" vertex="1">
          <mxGeometry x="1020" y="370" width="120" height="60" as="geometry" />
        </mxCell>
        <mxCell id="Odbw6xBOLVZNWxYlY6ok-210" style="edgeStyle=orthogonalEdgeStyle;rounded=0;orthogonalLoop=1;jettySize=auto;html=1;entryX=0;entryY=0.5;entryDx=0;entryDy=0;" parent="1" source="Odbw6xBOLVZNWxYlY6ok-209" target="Odbw6xBOLVZNWxYlY6ok-111" edge="1">
          <mxGeometry relative="1" as="geometry">
            <Array as="points">
              <mxPoint x="-510" y="510" />
              <mxPoint x="-510" y="420" />
            </Array>
          </mxGeometry>
        </mxCell>
        <mxCell id="Odbw6xBOLVZNWxYlY6ok-209" value="Gunpowder" style="rounded=0;whiteSpace=wrap;html=1;fillColor=#d5e8d4;strokeColor=#82b366;" parent="1" vertex="1">
          <mxGeometry x="-790" y="480" width="120" height="60" as="geometry" />
        </mxCell>
        <mxCell id="Odbw6xBOLVZNWxYlY6ok-213" value="Pressurised Canister" style="rounded=0;whiteSpace=wrap;html=1;fillColor=#d5e8d4;strokeColor=#82b366;" parent="1" vertex="1">
          <mxGeometry x="620" y="200" width="120" height="60" as="geometry" />
        </mxCell>
        <mxCell id="Odbw6xBOLVZNWxYlY6ok-219" style="edgeStyle=orthogonalEdgeStyle;rounded=0;orthogonalLoop=1;jettySize=auto;html=1;exitX=1;exitY=0.5;exitDx=0;exitDy=0;entryX=0;entryY=0.5;entryDx=0;entryDy=0;" parent="1" source="Odbw6xBOLVZNWxYlY6ok-218" target="Odbw6xBOLVZNWxYlY6ok-92" edge="1">
          <mxGeometry relative="1" as="geometry">
            <Array as="points">
              <mxPoint x="-180" y="230" />
              <mxPoint x="-180" y="320" />
            </Array>
          </mxGeometry>
        </mxCell>
        <mxCell id="Odbw6xBOLVZNWxYlY6ok-218" value="Crushed Raw Iron" style="rounded=0;whiteSpace=wrap;html=1;fillColor=#d5e8d4;strokeColor=#82b366;" parent="1" vertex="1">
          <mxGeometry x="-420" y="200" width="120" height="60" as="geometry" />
        </mxCell>
        <mxCell id="Odbw6xBOLVZNWxYlY6ok-221" value="&lt;h1 style=&quot;margin-top: 0px;&quot;&gt;TODO FOR HERE&lt;/h1&gt;&lt;div&gt;Oil field biome&lt;/div&gt;&lt;div&gt;Oil extraction&lt;br&gt;&lt;/div&gt;" style="text;html=1;whiteSpace=wrap;overflow=hidden;rounded=0;" parent="1" vertex="1">
          <mxGeometry x="1210" y="1680" width="290" height="240" as="geometry" />
        </mxCell>
        <mxCell id="Odbw6xBOLVZNWxYlY6ok-222" value="Maybe try to use substantial amounts of brass in these recipes?" style="text;html=1;align=center;verticalAlign=middle;whiteSpace=wrap;rounded=0;" parent="1" vertex="1">
          <mxGeometry x="1390" y="435" width="200" height="95" as="geometry" />
        </mxCell>
        <mxCell id="Odbw6xBOLVZNWxYlY6ok-223" value="Maybe try to use substantial amounts of brass in these recipes?" style="text;html=1;align=center;verticalAlign=middle;whiteSpace=wrap;rounded=0;" parent="1" vertex="1">
          <mxGeometry x="970" y="1420" width="200" height="95" as="geometry" />
        </mxCell>
        <mxCell id="Odbw6xBOLVZNWxYlY6ok-225" style="edgeStyle=orthogonalEdgeStyle;rounded=0;orthogonalLoop=1;jettySize=auto;html=1;" parent="1" source="Odbw6xBOLVZNWxYlY6ok-224" edge="1">
          <mxGeometry relative="1" as="geometry">
            <mxPoint x="-560" y="890" as="targetPoint" />
          </mxGeometry>
        </mxCell>
        <mxCell id="Odbw6xBOLVZNWxYlY6ok-224" value="Polyethylene sheet" style="rounded=0;whiteSpace=wrap;html=1;fillColor=#d5e8d4;strokeColor=#82b366;" parent="1" vertex="1">
          <mxGeometry x="-790" y="860" width="120" height="60" as="geometry" />
        </mxCell>
        <mxCell id="Odbw6xBOLVZNWxYlY6ok-226" value="Lubricant Bottle" style="rounded=0;whiteSpace=wrap;html=1;" parent="1" vertex="1">
          <mxGeometry x="-560" y="860" width="120" height="60" as="geometry" />
        </mxCell>
        <mxCell id="Odbw6xBOLVZNWxYlY6ok-229" style="edgeStyle=orthogonalEdgeStyle;rounded=0;orthogonalLoop=1;jettySize=auto;html=1;entryX=0;entryY=0.5;entryDx=0;entryDy=0;" parent="1" source="Odbw6xBOLVZNWxYlY6ok-227" target="Odbw6xBOLVZNWxYlY6ok-228" edge="1">
          <mxGeometry relative="1" as="geometry" />
        </mxCell>
        <mxCell id="Odbw6xBOLVZNWxYlY6ok-227" value="&lt;span style=&quot;font-weight: 400;&quot;&gt;Precision Mechanism&lt;/span&gt;" style="rounded=0;whiteSpace=wrap;html=1;fontStyle=1;fillColor=#d5e8d4;strokeColor=#82b366;" parent="1" vertex="1">
          <mxGeometry x="-790" y="950" width="120" height="60" as="geometry" />
        </mxCell>
        <mxCell id="Odbw6xBOLVZNWxYlY6ok-228" value="Looping Jukebox" style="rounded=0;whiteSpace=wrap;html=1;fillColor=#d5e8d4;strokeColor=#82b366;" parent="1" vertex="1">
          <mxGeometry x="-580" y="1020" width="120" height="60" as="geometry" />
        </mxCell>
        <mxCell id="Odbw6xBOLVZNWxYlY6ok-231" style="edgeStyle=orthogonalEdgeStyle;rounded=0;orthogonalLoop=1;jettySize=auto;html=1;entryX=0;entryY=0.5;entryDx=0;entryDy=0;" parent="1" source="Odbw6xBOLVZNWxYlY6ok-230" target="Odbw6xBOLVZNWxYlY6ok-228" edge="1">
          <mxGeometry relative="1" as="geometry" />
        </mxCell>
        <mxCell id="Odbw6xBOLVZNWxYlY6ok-230" value="Jukebox" style="rounded=0;whiteSpace=wrap;html=1;fillColor=#d5e8d4;strokeColor=#82b366;" parent="1" vertex="1">
          <mxGeometry x="-790" y="1090" width="120" height="60" as="geometry" />
        </mxCell>
        <mxCell id="Odbw6xBOLVZNWxYlY6ok-235" style="edgeStyle=orthogonalEdgeStyle;rounded=0;orthogonalLoop=1;jettySize=auto;html=1;entryX=0;entryY=0.5;entryDx=0;entryDy=0;" parent="1" source="Odbw6xBOLVZNWxYlY6ok-232" target="Odbw6xBOLVZNWxYlY6ok-233" edge="1">
          <mxGeometry relative="1" as="geometry" />
        </mxCell>
        <mxCell id="Odbw6xBOLVZNWxYlY6ok-245" value="Stonecutter" style="edgeLabel;html=1;align=center;verticalAlign=middle;resizable=0;points=[];" parent="Odbw6xBOLVZNWxYlY6ok-235" vertex="1" connectable="0">
          <mxGeometry x="0.075" y="-2" relative="1" as="geometry">
            <mxPoint x="-3" y="-2" as="offset" />
          </mxGeometry>
        </mxCell>
        <mxCell id="Odbw6xBOLVZNWxYlY6ok-232" value="Wool" style="rounded=0;whiteSpace=wrap;html=1;fillColor=#d5e8d4;strokeColor=#82b366;" parent="1" vertex="1">
          <mxGeometry x="-580" y="1090" width="120" height="60" as="geometry" />
        </mxCell>
        <mxCell id="Odbw6xBOLVZNWxYlY6ok-236" style="edgeStyle=orthogonalEdgeStyle;rounded=0;orthogonalLoop=1;jettySize=auto;html=1;entryX=0;entryY=0.5;entryDx=0;entryDy=0;" parent="1" source="Odbw6xBOLVZNWxYlY6ok-233" target="Odbw6xBOLVZNWxYlY6ok-234" edge="1">
          <mxGeometry relative="1" as="geometry" />
        </mxCell>
        <mxCell id="Odbw6xBOLVZNWxYlY6ok-233" value="Plushie&lt;br&gt;(Various)" style="rounded=0;whiteSpace=wrap;html=1;" parent="1" vertex="1">
          <mxGeometry x="-380" y="1090" width="120" height="60" as="geometry" />
        </mxCell>
        <mxCell id="Odbw6xBOLVZNWxYlY6ok-234" value="Plushie bomb&lt;br&gt;(Various)" style="rounded=0;whiteSpace=wrap;html=1;" parent="1" vertex="1">
          <mxGeometry x="-180" y="1160" width="120" height="60" as="geometry" />
        </mxCell>
        <mxCell id="Odbw6xBOLVZNWxYlY6ok-238" style="edgeStyle=orthogonalEdgeStyle;rounded=0;orthogonalLoop=1;jettySize=auto;html=1;entryX=0;entryY=0.5;entryDx=0;entryDy=0;" parent="1" source="Odbw6xBOLVZNWxYlY6ok-237" target="Odbw6xBOLVZNWxYlY6ok-234" edge="1">
          <mxGeometry relative="1" as="geometry" />
        </mxCell>
        <mxCell id="Odbw6xBOLVZNWxYlY6ok-237" value="Gunpowder" style="rounded=0;whiteSpace=wrap;html=1;fillColor=#d5e8d4;strokeColor=#82b366;" parent="1" vertex="1">
          <mxGeometry x="-380" y="1160" width="120" height="60" as="geometry" />
        </mxCell>
        <mxCell id="Odbw6xBOLVZNWxYlY6ok-241" style="edgeStyle=orthogonalEdgeStyle;rounded=0;orthogonalLoop=1;jettySize=auto;html=1;entryX=0;entryY=0.5;entryDx=0;entryDy=0;" parent="1" source="Odbw6xBOLVZNWxYlY6ok-239" target="Odbw6xBOLVZNWxYlY6ok-234" edge="1">
          <mxGeometry relative="1" as="geometry" />
        </mxCell>
        <mxCell id="Odbw6xBOLVZNWxYlY6ok-239" value="Microplastic Confetti" style="rounded=0;whiteSpace=wrap;html=1;fillColor=#ffe6cc;strokeColor=#d79b00;" parent="1" vertex="1">
          <mxGeometry x="-380" y="1230" width="120" height="60" as="geometry" />
        </mxCell>
        <mxCell id="Odbw6xBOLVZNWxYlY6ok-244" style="edgeStyle=orthogonalEdgeStyle;rounded=0;orthogonalLoop=1;jettySize=auto;html=1;entryX=0;entryY=0.5;entryDx=0;entryDy=0;" parent="1" source="Odbw6xBOLVZNWxYlY6ok-242" target="Odbw6xBOLVZNWxYlY6ok-243" edge="1">
          <mxGeometry relative="1" as="geometry">
            <Array as="points">
              <mxPoint x="307" y="1230" />
              <mxPoint x="307" y="1230" />
            </Array>
          </mxGeometry>
        </mxCell>
        <mxCell id="Odbw6xBOLVZNWxYlY6ok-246" value="Stonecutter" style="edgeLabel;html=1;align=center;verticalAlign=middle;resizable=0;points=[];" parent="Odbw6xBOLVZNWxYlY6ok-244" vertex="1" connectable="0">
          <mxGeometry x="0.0532" y="-3" relative="1" as="geometry">
            <mxPoint x="-2" y="-3" as="offset" />
          </mxGeometry>
        </mxCell>
        <mxCell id="Odbw6xBOLVZNWxYlY6ok-242" value="Amethyst Shard" style="rounded=0;whiteSpace=wrap;html=1;fillColor=#d5e8d4;strokeColor=#82b366;" parent="1" vertex="1">
          <mxGeometry x="147" y="1200" width="120" height="60" as="geometry" />
        </mxCell>
        <mxCell id="Odbw6xBOLVZNWxYlY6ok-243" value="&lt;font&gt;Music Disc&lt;br&gt;Aria Math&lt;/font&gt;" style="rounded=0;whiteSpace=wrap;html=1;fillColor=#d5e8d4;strokeColor=#82b366;" parent="1" vertex="1">
          <mxGeometry x="347" y="1200" width="120" height="60" as="geometry" />
        </mxCell>
        <mxCell id="Odbw6xBOLVZNWxYlY6ok-247" style="edgeStyle=orthogonalEdgeStyle;rounded=0;orthogonalLoop=1;jettySize=auto;html=1;entryX=0;entryY=0.5;entryDx=0;entryDy=0;" parent="1" source="Odbw6xBOLVZNWxYlY6ok-249" target="Odbw6xBOLVZNWxYlY6ok-250" edge="1">
          <mxGeometry relative="1" as="geometry">
            <Array as="points">
              <mxPoint x="307" y="1300" />
              <mxPoint x="307" y="1300" />
            </Array>
          </mxGeometry>
        </mxCell>
        <mxCell id="Odbw6xBOLVZNWxYlY6ok-248" value="Stonecutter" style="edgeLabel;html=1;align=center;verticalAlign=middle;resizable=0;points=[];" parent="Odbw6xBOLVZNWxYlY6ok-247" vertex="1" connectable="0">
          <mxGeometry x="0.0532" y="-3" relative="1" as="geometry">
            <mxPoint x="-2" y="-3" as="offset" />
          </mxGeometry>
        </mxCell>
        <mxCell id="Odbw6xBOLVZNWxYlY6ok-249" value="Erythrite block" style="rounded=0;whiteSpace=wrap;html=1;fillColor=#d5e8d4;strokeColor=#82b366;" parent="1" vertex="1">
          <mxGeometry x="147" y="1270" width="120" height="60" as="geometry" />
        </mxCell>
        <mxCell id="Odbw6xBOLVZNWxYlY6ok-250" value="&lt;font&gt;Music Disc&lt;br&gt;Valse Romantique&lt;/font&gt;" style="rounded=0;whiteSpace=wrap;html=1;fillColor=#d5e8d4;strokeColor=#82b366;" parent="1" vertex="1">
          <mxGeometry x="347" y="1270" width="120" height="60" as="geometry" />
        </mxCell>
        <mxCell id="Odbw6xBOLVZNWxYlY6ok-251" style="edgeStyle=orthogonalEdgeStyle;rounded=0;orthogonalLoop=1;jettySize=auto;html=1;entryX=0;entryY=0.5;entryDx=0;entryDy=0;" parent="1" source="Odbw6xBOLVZNWxYlY6ok-253" target="Odbw6xBOLVZNWxYlY6ok-254" edge="1">
          <mxGeometry relative="1" as="geometry">
            <Array as="points">
              <mxPoint x="307" y="1370" />
              <mxPoint x="307" y="1370" />
            </Array>
          </mxGeometry>
        </mxCell>
        <mxCell id="Odbw6xBOLVZNWxYlY6ok-252" value="Stonecutter" style="edgeLabel;html=1;align=center;verticalAlign=middle;resizable=0;points=[];" parent="Odbw6xBOLVZNWxYlY6ok-251" vertex="1" connectable="0">
          <mxGeometry x="0.0532" y="-3" relative="1" as="geometry">
            <mxPoint x="-2" y="-3" as="offset" />
          </mxGeometry>
        </mxCell>
        <mxCell id="Odbw6xBOLVZNWxYlY6ok-253" value="Prismarine crystals" style="rounded=0;whiteSpace=wrap;html=1;fillColor=#d5e8d4;strokeColor=#82b366;" parent="1" vertex="1">
          <mxGeometry x="147" y="1340" width="120" height="60" as="geometry" />
        </mxCell>
        <mxCell id="Odbw6xBOLVZNWxYlY6ok-254" value="&lt;font&gt;Music Disc&lt;br&gt;Claire De Lune&lt;/font&gt;" style="rounded=0;whiteSpace=wrap;html=1;fillColor=#d5e8d4;strokeColor=#82b366;" parent="1" vertex="1">
          <mxGeometry x="347" y="1340" width="120" height="60" as="geometry" />
        </mxCell>
        <mxCell id="Odbw6xBOLVZNWxYlY6ok-262" style="edgeStyle=orthogonalEdgeStyle;rounded=0;orthogonalLoop=1;jettySize=auto;html=1;entryX=0;entryY=0.5;entryDx=0;entryDy=0;" parent="1" source="Odbw6xBOLVZNWxYlY6ok-256" target="Odbw6xBOLVZNWxYlY6ok-259" edge="1">
          <mxGeometry relative="1" as="geometry" />
        </mxCell>
        <mxCell id="Odbw6xBOLVZNWxYlY6ok-256" value="Speedometer" style="rounded=0;whiteSpace=wrap;html=1;fillColor=#d5e8d4;strokeColor=#82b366;" parent="1" vertex="1">
          <mxGeometry x="-790" y="1214" width="120" height="60" as="geometry" />
        </mxCell>
        <mxCell id="Odbw6xBOLVZNWxYlY6ok-260" style="edgeStyle=orthogonalEdgeStyle;rounded=0;orthogonalLoop=1;jettySize=auto;html=1;entryX=0;entryY=0.5;entryDx=0;entryDy=0;" parent="1" source="Odbw6xBOLVZNWxYlY6ok-257" target="Odbw6xBOLVZNWxYlY6ok-259" edge="1">
          <mxGeometry relative="1" as="geometry" />
        </mxCell>
        <mxCell id="Odbw6xBOLVZNWxYlY6ok-257" value="Clutch" style="rounded=0;whiteSpace=wrap;html=1;fillColor=#d5e8d4;strokeColor=#82b366;" parent="1" vertex="1">
          <mxGeometry x="-790" y="1284" width="120" height="60" as="geometry" />
        </mxCell>
        <mxCell id="Odbw6xBOLVZNWxYlY6ok-263" style="edgeStyle=orthogonalEdgeStyle;rounded=0;orthogonalLoop=1;jettySize=auto;html=1;entryX=0;entryY=0.5;entryDx=0;entryDy=0;" parent="1" source="Odbw6xBOLVZNWxYlY6ok-258" target="Odbw6xBOLVZNWxYlY6ok-259" edge="1">
          <mxGeometry relative="1" as="geometry" />
        </mxCell>
        <mxCell id="Odbw6xBOLVZNWxYlY6ok-258" value="Comparator" style="rounded=0;whiteSpace=wrap;html=1;fillColor=#d5e8d4;strokeColor=#82b366;" parent="1" vertex="1">
          <mxGeometry x="-790" y="1354" width="120" height="60" as="geometry" />
        </mxCell>
        <mxCell id="jtdmb_QFqif3eSZ9cabo-66" style="edgeStyle=orthogonalEdgeStyle;rounded=0;orthogonalLoop=1;jettySize=auto;html=1;entryX=0;entryY=0.5;entryDx=0;entryDy=0;" parent="1" source="Odbw6xBOLVZNWxYlY6ok-259" target="jtdmb_QFqif3eSZ9cabo-64" edge="1">
          <mxGeometry relative="1" as="geometry" />
        </mxCell>
        <mxCell id="jtdmb_QFqif3eSZ9cabo-72" value="Mechanical&lt;br&gt;Crafting" style="edgeLabel;html=1;align=center;verticalAlign=middle;resizable=0;points=[];" parent="jtdmb_QFqif3eSZ9cabo-66" vertex="1" connectable="0">
          <mxGeometry x="-0.1282" y="-2" relative="1" as="geometry">
            <mxPoint as="offset" />
          </mxGeometry>
        </mxCell>
        <mxCell id="Odbw6xBOLVZNWxYlY6ok-259" value="Kinetic Transistor" style="rounded=0;whiteSpace=wrap;html=1;fillColor=#d5e8d4;strokeColor=#82b366;" parent="1" vertex="1">
          <mxGeometry x="-590" y="1320" width="120" height="60" as="geometry" />
        </mxCell>
        <mxCell id="Odbw6xBOLVZNWxYlY6ok-274" value="Cracking Column Base" style="rounded=0;whiteSpace=wrap;html=1;" parent="1" vertex="1">
          <mxGeometry x="780" y="200" width="120" height="60" as="geometry" />
        </mxCell>
        <mxCell id="Odbw6xBOLVZNWxYlY6ok-276" value="Flare Stack Vent" style="rounded=0;whiteSpace=wrap;html=1;" parent="1" vertex="1">
          <mxGeometry x="940" y="200" width="120" height="60" as="geometry" />
        </mxCell>
        <mxCell id="Odbw6xBOLVZNWxYlY6ok-277" value="Fractionating Column Port" style="rounded=0;whiteSpace=wrap;html=1;" parent="1" vertex="1">
          <mxGeometry x="1100" y="200" width="120" height="60" as="geometry" />
        </mxCell>
        <mxCell id="Odbw6xBOLVZNWxYlY6ok-280" value="Ethylene" style="rounded=0;whiteSpace=wrap;html=1;" parent="1" vertex="1">
          <mxGeometry x="163" y="770" width="120" height="60" as="geometry" />
        </mxCell>
        <mxCell id="jtdmb_QFqif3eSZ9cabo-3" style="edgeStyle=orthogonalEdgeStyle;rounded=0;orthogonalLoop=1;jettySize=auto;html=1;entryX=1;entryY=0.5;entryDx=0;entryDy=0;" parent="1" source="jtdmb_QFqif3eSZ9cabo-1" target="Odbw6xBOLVZNWxYlY6ok-202" edge="1">
          <mxGeometry relative="1" as="geometry">
            <Array as="points">
              <mxPoint x="1230" y="400" />
            </Array>
          </mxGeometry>
        </mxCell>
        <mxCell id="jtdmb_QFqif3eSZ9cabo-1" value="Gravel" style="rounded=0;whiteSpace=wrap;html=1;fillColor=#d5e8d4;strokeColor=#82b366;" parent="1" vertex="1">
          <mxGeometry x="1170" y="290" width="120" height="60" as="geometry" />
        </mxCell>
        <mxCell id="jtdmb_QFqif3eSZ9cabo-5" style="edgeStyle=orthogonalEdgeStyle;rounded=0;orthogonalLoop=1;jettySize=auto;html=1;entryX=1;entryY=0.5;entryDx=0;entryDy=0;" parent="1" source="jtdmb_QFqif3eSZ9cabo-4" target="Odbw6xBOLVZNWxYlY6ok-202" edge="1">
          <mxGeometry relative="1" as="geometry">
            <Array as="points">
              <mxPoint x="1390" y="400" />
            </Array>
          </mxGeometry>
        </mxCell>
        <mxCell id="jtdmb_QFqif3eSZ9cabo-6" value="Heated Compressing&lt;br&gt;(2x efficiency on superheating)" style="edgeLabel;html=1;align=center;verticalAlign=middle;resizable=0;points=[];" parent="jtdmb_QFqif3eSZ9cabo-5" vertex="1" connectable="0">
          <mxGeometry x="0.1805" y="2" relative="1" as="geometry">
            <mxPoint x="-3" y="18" as="offset" />
          </mxGeometry>
        </mxCell>
        <mxCell id="jtdmb_QFqif3eSZ9cabo-4" value="Crude Oil" style="rounded=0;whiteSpace=wrap;html=1;fillColor=#d5e8d4;strokeColor=#82b366;" parent="1" vertex="1">
          <mxGeometry x="1330" y="290" width="120" height="60" as="geometry" />
        </mxCell>
        <mxCell id="jtdmb_QFqif3eSZ9cabo-8" style="edgeStyle=orthogonalEdgeStyle;rounded=0;orthogonalLoop=1;jettySize=auto;html=1;entryX=0;entryY=0.5;entryDx=0;entryDy=0;" parent="1" source="jtdmb_QFqif3eSZ9cabo-7" target="Odbw6xBOLVZNWxYlY6ok-90" edge="1">
          <mxGeometry relative="1" as="geometry" />
        </mxCell>
        <mxCell id="jtdmb_QFqif3eSZ9cabo-7" value="LPG" style="rounded=0;whiteSpace=wrap;html=1;fillColor=#d5e8d4;strokeColor=#82b366;" parent="1" vertex="1">
          <mxGeometry x="-640" y="290" width="120" height="60" as="geometry" />
        </mxCell>
        <mxCell id="icsWugEK6nNElAmf-cyU-2" style="edgeStyle=orthogonalEdgeStyle;rounded=0;orthogonalLoop=1;jettySize=auto;html=1;entryX=0.5;entryY=0;entryDx=0;entryDy=0;" edge="1" parent="1" source="jtdmb_QFqif3eSZ9cabo-11" target="Odbw6xBOLVZNWxYlY6ok-132">
          <mxGeometry relative="1" as="geometry" />
        </mxCell>
        <mxCell id="icsWugEK6nNElAmf-cyU-6" style="edgeStyle=orthogonalEdgeStyle;rounded=0;orthogonalLoop=1;jettySize=auto;html=1;entryX=0.5;entryY=0;entryDx=0;entryDy=0;" edge="1" parent="1" source="jtdmb_QFqif3eSZ9cabo-11" target="icsWugEK6nNElAmf-cyU-5">
          <mxGeometry relative="1" as="geometry">
            <Array as="points">
              <mxPoint x="-147" y="630" />
              <mxPoint x="33" y="630" />
            </Array>
          </mxGeometry>
        </mxCell>
        <mxCell id="icsWugEK6nNElAmf-cyU-7" style="edgeStyle=orthogonalEdgeStyle;rounded=0;orthogonalLoop=1;jettySize=auto;html=1;entryX=0.5;entryY=0;entryDx=0;entryDy=0;" edge="1" parent="1" source="jtdmb_QFqif3eSZ9cabo-11" target="Odbw6xBOLVZNWxYlY6ok-137">
          <mxGeometry relative="1" as="geometry">
            <Array as="points">
              <mxPoint x="-147" y="630" />
              <mxPoint x="223" y="630" />
            </Array>
          </mxGeometry>
        </mxCell>
        <mxCell id="icsWugEK6nNElAmf-cyU-17" value="Fractionating Column" style="edgeLabel;html=1;align=center;verticalAlign=middle;resizable=0;points=[];" vertex="1" connectable="0" parent="icsWugEK6nNElAmf-cyU-7">
          <mxGeometry x="-0.6471" relative="1" as="geometry">
            <mxPoint as="offset" />
          </mxGeometry>
        </mxCell>
        <mxCell id="jtdmb_QFqif3eSZ9cabo-11" value="Crude Oil" style="rounded=0;whiteSpace=wrap;html=1;fillColor=#d5e8d4;strokeColor=#82b366;" parent="1" vertex="1">
          <mxGeometry x="-207" y="550" width="120" height="60" as="geometry" />
        </mxCell>
        <mxCell id="jtdmb_QFqif3eSZ9cabo-22" value="Control unit" style="rounded=0;whiteSpace=wrap;html=1;" parent="1" vertex="1">
          <mxGeometry x="165.5" y="1750" width="120" height="60" as="geometry" />
        </mxCell>
        <mxCell id="jtdmb_QFqif3eSZ9cabo-28" style="edgeStyle=orthogonalEdgeStyle;rounded=0;orthogonalLoop=1;jettySize=auto;html=1;entryX=0;entryY=0.5;entryDx=0;entryDy=0;exitX=1;exitY=0.5;exitDx=0;exitDy=0;" parent="1" source="jtdmb_QFqif3eSZ9cabo-24" target="jtdmb_QFqif3eSZ9cabo-27" edge="1">
          <mxGeometry relative="1" as="geometry">
            <mxPoint x="25.5" y="1905" as="sourcePoint" />
            <Array as="points">
              <mxPoint x="35.5" y="2000" />
              <mxPoint x="35.5" y="2000" />
            </Array>
          </mxGeometry>
        </mxCell>
        <mxCell id="jtdmb_QFqif3eSZ9cabo-24" value="Magnetic Platter" style="rounded=0;whiteSpace=wrap;html=1;fillColor=#d5e8d4;strokeColor=#82b366;" parent="1" vertex="1">
          <mxGeometry x="-99" y="1970" width="120" height="60" as="geometry" />
        </mxCell>
        <mxCell id="jtdmb_QFqif3eSZ9cabo-25" value="Storage Drive Bay&lt;br&gt;(Requires 256RPM)" style="rounded=0;whiteSpace=wrap;html=1;" parent="1" vertex="1">
          <mxGeometry x="165.5" y="1835" width="120" height="60" as="geometry" />
        </mxCell>
        <mxCell id="jtdmb_QFqif3eSZ9cabo-29" style="edgeStyle=orthogonalEdgeStyle;rounded=0;orthogonalLoop=1;jettySize=auto;html=1;entryX=0.5;entryY=1;entryDx=0;entryDy=0;" parent="1" source="jtdmb_QFqif3eSZ9cabo-27" target="jtdmb_QFqif3eSZ9cabo-25" edge="1">
          <mxGeometry relative="1" as="geometry">
            <mxPoint x="165.5" y="1865" as="targetPoint" />
          </mxGeometry>
        </mxCell>
        <mxCell id="jtdmb_QFqif3eSZ9cabo-30" value="Inserted into&lt;br&gt;(Holds 8)" style="edgeLabel;html=1;align=center;verticalAlign=middle;resizable=0;points=[];" parent="jtdmb_QFqif3eSZ9cabo-29" vertex="1" connectable="0">
          <mxGeometry x="-0.2412" y="1" relative="1" as="geometry">
            <mxPoint x="6" y="-12" as="offset" />
          </mxGeometry>
        </mxCell>
        <mxCell id="jtdmb_QFqif3eSZ9cabo-27" value="Magnetic Storage Drive" style="rounded=0;whiteSpace=wrap;html=1;fillColor=#d5e8d4;strokeColor=#82b366;" parent="1" vertex="1">
          <mxGeometry x="165.5" y="1970" width="120" height="60" as="geometry" />
        </mxCell>
        <mxCell id="jtdmb_QFqif3eSZ9cabo-35" value="Arithmetic and Logic Unit" style="rounded=0;whiteSpace=wrap;html=1;" parent="1" vertex="1">
          <mxGeometry x="165.5" y="1660" width="120" height="60" as="geometry" />
        </mxCell>
        <mxCell id="jtdmb_QFqif3eSZ9cabo-36" value="Memory Unit" style="rounded=0;whiteSpace=wrap;html=1;" parent="1" vertex="1">
          <mxGeometry x="165.5" y="1570" width="120" height="60" as="geometry" />
        </mxCell>
        <mxCell id="jtdmb_QFqif3eSZ9cabo-43" style="edgeStyle=orthogonalEdgeStyle;rounded=0;orthogonalLoop=1;jettySize=auto;html=1;entryX=1;entryY=0.5;entryDx=0;entryDy=0;" parent="1" target="jtdmb_QFqif3eSZ9cabo-36" edge="1">
          <mxGeometry relative="1" as="geometry">
            <Array as="points">
              <mxPoint x="405.5" y="1600" />
            </Array>
            <mxPoint x="405.4736842105267" y="1510" as="sourcePoint" />
          </mxGeometry>
        </mxCell>
        <mxCell id="jtdmb_QFqif3eSZ9cabo-44" style="edgeStyle=orthogonalEdgeStyle;rounded=0;orthogonalLoop=1;jettySize=auto;html=1;entryX=1;entryY=0.5;entryDx=0;entryDy=0;" parent="1" target="jtdmb_QFqif3eSZ9cabo-35" edge="1">
          <mxGeometry relative="1" as="geometry">
            <Array as="points">
              <mxPoint x="405.5" y="1690" />
            </Array>
            <mxPoint x="405.4736842105267" y="1510" as="sourcePoint" />
          </mxGeometry>
        </mxCell>
        <mxCell id="jtdmb_QFqif3eSZ9cabo-45" style="edgeStyle=orthogonalEdgeStyle;rounded=0;orthogonalLoop=1;jettySize=auto;html=1;entryX=1;entryY=0.5;entryDx=0;entryDy=0;" parent="1" target="jtdmb_QFqif3eSZ9cabo-22" edge="1">
          <mxGeometry relative="1" as="geometry">
            <Array as="points">
              <mxPoint x="405.5" y="1780" />
            </Array>
            <mxPoint x="405.4736842105267" y="1510" as="sourcePoint" />
          </mxGeometry>
        </mxCell>
        <mxCell id="jtdmb_QFqif3eSZ9cabo-46" style="edgeStyle=orthogonalEdgeStyle;rounded=0;orthogonalLoop=1;jettySize=auto;html=1;entryX=1;entryY=0.5;entryDx=0;entryDy=0;" parent="1" edge="1">
          <mxGeometry relative="1" as="geometry">
            <Array as="points">
              <mxPoint x="405.5" y="1865" />
            </Array>
            <mxPoint x="405.4736842105267" y="1510" as="sourcePoint" />
            <mxPoint x="285.5" y="1865" as="targetPoint" />
          </mxGeometry>
        </mxCell>
        <mxCell id="2PNbPFjb4XO5JUeQITMS-9" value="Mechanical Crafting" style="edgeLabel;html=1;align=center;verticalAlign=middle;resizable=0;points=[];" parent="jtdmb_QFqif3eSZ9cabo-46" vertex="1" connectable="0">
          <mxGeometry x="-0.793" y="1" relative="1" as="geometry">
            <mxPoint as="offset" />
          </mxGeometry>
        </mxCell>
        <mxCell id="jtdmb_QFqif3eSZ9cabo-48" style="edgeStyle=orthogonalEdgeStyle;rounded=0;orthogonalLoop=1;jettySize=auto;html=1;entryX=0;entryY=0.5;entryDx=0;entryDy=0;" parent="1" source="jtdmb_QFqif3eSZ9cabo-47" target="jtdmb_QFqif3eSZ9cabo-27" edge="1">
          <mxGeometry relative="1" as="geometry">
            <Array as="points">
              <mxPoint x="65.5" y="2195" />
              <mxPoint x="65.5" y="2000" />
            </Array>
          </mxGeometry>
        </mxCell>
        <mxCell id="jtdmb_QFqif3eSZ9cabo-47" value="Plastic Composite" style="rounded=0;whiteSpace=wrap;html=1;fillColor=#d5e8d4;strokeColor=#82b366;" parent="1" vertex="1">
          <mxGeometry x="-99" y="2165" width="120" height="60" as="geometry" />
        </mxCell>
        <mxCell id="jtdmb_QFqif3eSZ9cabo-52" style="edgeStyle=orthogonalEdgeStyle;rounded=0;orthogonalLoop=1;jettySize=auto;html=1;entryX=0;entryY=0.5;entryDx=0;entryDy=0;" parent="1" source="jtdmb_QFqif3eSZ9cabo-51" target="jtdmb_QFqif3eSZ9cabo-27" edge="1">
          <mxGeometry relative="1" as="geometry">
            <Array as="points">
              <mxPoint x="65.5" y="2095" />
              <mxPoint x="65.5" y="2000" />
            </Array>
          </mxGeometry>
        </mxCell>
        <mxCell id="jtdmb_QFqif3eSZ9cabo-53" value="Sequenced&lt;br&gt;assembly" style="edgeLabel;html=1;align=center;verticalAlign=middle;resizable=0;points=[];" parent="jtdmb_QFqif3eSZ9cabo-52" vertex="1" connectable="0">
          <mxGeometry x="0.042" y="2" relative="1" as="geometry">
            <mxPoint x="42" y="-35" as="offset" />
          </mxGeometry>
        </mxCell>
        <mxCell id="jtdmb_QFqif3eSZ9cabo-51" value="Shaft" style="rounded=0;whiteSpace=wrap;html=1;fillColor=#d5e8d4;strokeColor=#82b366;" parent="1" vertex="1">
          <mxGeometry x="-99" y="2065" width="120" height="60" as="geometry" />
        </mxCell>
        <mxCell id="jtdmb_QFqif3eSZ9cabo-55" style="edgeStyle=orthogonalEdgeStyle;rounded=0;orthogonalLoop=1;jettySize=auto;html=1;" parent="1" source="jtdmb_QFqif3eSZ9cabo-54" edge="1">
          <mxGeometry relative="1" as="geometry">
            <mxPoint x="-100" y="2000" as="targetPoint" />
          </mxGeometry>
        </mxCell>
        <mxCell id="jtdmb_QFqif3eSZ9cabo-56" value="Pressing" style="edgeLabel;html=1;align=center;verticalAlign=middle;resizable=0;points=[];" parent="jtdmb_QFqif3eSZ9cabo-55" vertex="1" connectable="0">
          <mxGeometry x="-0.0673" relative="1" as="geometry">
            <mxPoint as="offset" />
          </mxGeometry>
        </mxCell>
        <mxCell id="jtdmb_QFqif3eSZ9cabo-54" value="Magnetised Cobalt" style="rounded=0;whiteSpace=wrap;html=1;fillColor=#d5e8d4;strokeColor=#82b366;" parent="1" vertex="1">
          <mxGeometry x="-290" y="1970" width="120" height="60" as="geometry" />
        </mxCell>
        <mxCell id="jtdmb_QFqif3eSZ9cabo-58" style="edgeStyle=orthogonalEdgeStyle;rounded=0;orthogonalLoop=1;jettySize=auto;html=1;entryX=0;entryY=0.5;entryDx=0;entryDy=0;" parent="1" source="jtdmb_QFqif3eSZ9cabo-57" target="jtdmb_QFqif3eSZ9cabo-27" edge="1">
          <mxGeometry relative="1" as="geometry">
            <Array as="points">
              <mxPoint x="65.5" y="2290" />
              <mxPoint x="65.5" y="2000" />
            </Array>
          </mxGeometry>
        </mxCell>
        <mxCell id="jtdmb_QFqif3eSZ9cabo-57" value="Brass Needle" style="rounded=0;whiteSpace=wrap;html=1;fillColor=#d5e8d4;strokeColor=#82b366;" parent="1" vertex="1">
          <mxGeometry x="-99" y="2260" width="120" height="60" as="geometry" />
        </mxCell>
        <mxCell id="jtdmb_QFqif3eSZ9cabo-60" style="edgeStyle=orthogonalEdgeStyle;rounded=0;orthogonalLoop=1;jettySize=auto;html=1;" parent="1" source="jtdmb_QFqif3eSZ9cabo-59" target="jtdmb_QFqif3eSZ9cabo-57" edge="1">
          <mxGeometry relative="1" as="geometry" />
        </mxCell>
        <mxCell id="jtdmb_QFqif3eSZ9cabo-62" value="Sawing" style="edgeLabel;html=1;align=center;verticalAlign=middle;resizable=0;points=[];" parent="jtdmb_QFqif3eSZ9cabo-60" vertex="1" connectable="0">
          <mxGeometry x="-0.0714" y="1" relative="1" as="geometry">
            <mxPoint as="offset" />
          </mxGeometry>
        </mxCell>
        <mxCell id="jtdmb_QFqif3eSZ9cabo-59" value="Brass Sheet" style="rounded=0;whiteSpace=wrap;html=1;fillColor=#d5e8d4;strokeColor=#82b366;" parent="1" vertex="1">
          <mxGeometry x="-290" y="2260" width="120" height="60" as="geometry" />
        </mxCell>
        <mxCell id="jtdmb_QFqif3eSZ9cabo-67" style="edgeStyle=orthogonalEdgeStyle;rounded=0;orthogonalLoop=1;jettySize=auto;html=1;entryX=0;entryY=0.5;entryDx=0;entryDy=0;" parent="1" source="jtdmb_QFqif3eSZ9cabo-64" target="jtdmb_QFqif3eSZ9cabo-65" edge="1">
          <mxGeometry relative="1" as="geometry" />
        </mxCell>
        <mxCell id="jtdmb_QFqif3eSZ9cabo-74" value="Sequenced&lt;br&gt;Assembly" style="edgeLabel;html=1;align=center;verticalAlign=middle;resizable=0;points=[];" parent="jtdmb_QFqif3eSZ9cabo-67" vertex="1" connectable="0">
          <mxGeometry x="-0.0278" relative="1" as="geometry">
            <mxPoint x="35" y="28" as="offset" />
          </mxGeometry>
        </mxCell>
        <mxCell id="jtdmb_QFqif3eSZ9cabo-78" style="edgeStyle=orthogonalEdgeStyle;rounded=0;orthogonalLoop=1;jettySize=auto;html=1;entryX=0;entryY=0.5;entryDx=0;entryDy=0;" parent="1" source="jtdmb_QFqif3eSZ9cabo-64" target="jtdmb_QFqif3eSZ9cabo-77" edge="1">
          <mxGeometry relative="1" as="geometry" />
        </mxCell>
        <mxCell id="jtdmb_QFqif3eSZ9cabo-64" value="Logic Gate" style="rounded=0;whiteSpace=wrap;html=1;fillColor=#d5e8d4;strokeColor=#82b366;" parent="1" vertex="1">
          <mxGeometry x="-380" y="1320" width="120" height="60" as="geometry" />
        </mxCell>
        <mxCell id="jtdmb_QFqif3eSZ9cabo-65" value="Kinetic Circuit" style="rounded=0;whiteSpace=wrap;html=1;fillColor=#d5e8d4;strokeColor=#82b366;" parent="1" vertex="1">
          <mxGeometry x="-170" y="1260" width="120" height="60" as="geometry" />
        </mxCell>
        <mxCell id="jtdmb_QFqif3eSZ9cabo-80" style="edgeStyle=orthogonalEdgeStyle;rounded=0;orthogonalLoop=1;jettySize=auto;html=1;entryX=0;entryY=0.5;entryDx=0;entryDy=0;" parent="1" source="jtdmb_QFqif3eSZ9cabo-75" target="jtdmb_QFqif3eSZ9cabo-79" edge="1">
          <mxGeometry relative="1" as="geometry">
            <Array as="points">
              <mxPoint x="-620" y="1550" />
              <mxPoint x="-620" y="1580" />
            </Array>
          </mxGeometry>
        </mxCell>
        <mxCell id="jtdmb_QFqif3eSZ9cabo-75" value="Kinetic Circuit" style="rounded=0;whiteSpace=wrap;html=1;fillColor=#d5e8d4;strokeColor=#82b366;" parent="1" vertex="1">
          <mxGeometry x="-790" y="1520" width="120" height="60" as="geometry" />
        </mxCell>
        <mxCell id="jtdmb_QFqif3eSZ9cabo-81" style="edgeStyle=orthogonalEdgeStyle;rounded=0;orthogonalLoop=1;jettySize=auto;html=1;entryX=0;entryY=0.5;entryDx=0;entryDy=0;" parent="1" source="jtdmb_QFqif3eSZ9cabo-76" target="jtdmb_QFqif3eSZ9cabo-79" edge="1">
          <mxGeometry relative="1" as="geometry">
            <Array as="points">
              <mxPoint x="-620" y="1620" />
              <mxPoint x="-620" y="1580" />
            </Array>
          </mxGeometry>
        </mxCell>
        <mxCell id="2PNbPFjb4XO5JUeQITMS-22" value="Sequenced&lt;br&gt;Assembly" style="edgeLabel;html=1;align=center;verticalAlign=middle;resizable=0;points=[];" parent="jtdmb_QFqif3eSZ9cabo-81" vertex="1" connectable="0">
          <mxGeometry x="0.4033" y="-2" relative="1" as="geometry">
            <mxPoint as="offset" />
          </mxGeometry>
        </mxCell>
        <mxCell id="jtdmb_QFqif3eSZ9cabo-76" value="Memory Cell" style="rounded=0;whiteSpace=wrap;html=1;fillColor=#d5e8d4;strokeColor=#82b366;" parent="1" vertex="1">
          <mxGeometry x="-790" y="1590" width="120" height="60" as="geometry" />
        </mxCell>
        <mxCell id="jtdmb_QFqif3eSZ9cabo-77" value="Memory Cell" style="rounded=0;whiteSpace=wrap;html=1;fillColor=#d5e8d4;strokeColor=#82b366;" parent="1" vertex="1">
          <mxGeometry x="-170" y="1380" width="120" height="60" as="geometry" />
        </mxCell>
        <mxCell id="jtdmb_QFqif3eSZ9cabo-79" value="Computation Core" style="rounded=0;whiteSpace=wrap;html=1;" parent="1" vertex="1">
          <mxGeometry x="-480" y="1550" width="120" height="60" as="geometry" />
        </mxCell>
        <mxCell id="2PNbPFjb4XO5JUeQITMS-1" value="Plastic Composite" style="rounded=0;whiteSpace=wrap;html=1;fillColor=#d5e8d4;strokeColor=#82b366;" parent="1" vertex="1">
          <mxGeometry x="-530" y="1760" width="120" height="60" as="geometry" />
        </mxCell>
        <mxCell id="2PNbPFjb4XO5JUeQITMS-4" style="edgeStyle=orthogonalEdgeStyle;rounded=0;orthogonalLoop=1;jettySize=auto;html=1;entryX=0;entryY=0.5;entryDx=0;entryDy=0;" parent="1" source="2PNbPFjb4XO5JUeQITMS-2" target="2PNbPFjb4XO5JUeQITMS-1" edge="1">
          <mxGeometry relative="1" as="geometry">
            <Array as="points">
              <mxPoint x="-630" y="1740" />
              <mxPoint x="-630" y="1790" />
            </Array>
          </mxGeometry>
        </mxCell>
        <mxCell id="2PNbPFjb4XO5JUeQITMS-2" value="Polyethylene Sheet" style="rounded=0;whiteSpace=wrap;html=1;fillColor=#d5e8d4;strokeColor=#82b366;" parent="1" vertex="1">
          <mxGeometry x="-790" y="1710" width="120" height="60" as="geometry" />
        </mxCell>
        <mxCell id="2PNbPFjb4XO5JUeQITMS-5" style="edgeStyle=orthogonalEdgeStyle;rounded=0;orthogonalLoop=1;jettySize=auto;html=1;entryX=0;entryY=0.5;entryDx=0;entryDy=0;" parent="1" source="2PNbPFjb4XO5JUeQITMS-3" target="2PNbPFjb4XO5JUeQITMS-1" edge="1">
          <mxGeometry relative="1" as="geometry">
            <Array as="points">
              <mxPoint x="-630" y="1840" />
              <mxPoint x="-630" y="1790" />
            </Array>
          </mxGeometry>
        </mxCell>
        <mxCell id="2PNbPFjb4XO5JUeQITMS-6" value="Sequenced&lt;br&gt;Assembly" style="edgeLabel;html=1;align=center;verticalAlign=middle;resizable=0;points=[];" parent="2PNbPFjb4XO5JUeQITMS-5" vertex="1" connectable="0">
          <mxGeometry x="0.366" y="1" relative="1" as="geometry">
            <mxPoint x="7" y="1" as="offset" />
          </mxGeometry>
        </mxCell>
        <mxCell id="2PNbPFjb4XO5JUeQITMS-3" value="Cobalt Sheet" style="rounded=0;whiteSpace=wrap;html=1;fillColor=#d5e8d4;strokeColor=#82b366;" parent="1" vertex="1">
          <mxGeometry x="-790" y="1810" width="120" height="60" as="geometry" />
        </mxCell>
        <mxCell id="2PNbPFjb4XO5JUeQITMS-8" value="Plastic Composite" style="rounded=0;whiteSpace=wrap;html=1;fillColor=#d5e8d4;strokeColor=#82b366;" parent="1" vertex="1">
          <mxGeometry x="347" y="1460" width="120" height="60" as="geometry" />
        </mxCell>
        <mxCell id="2PNbPFjb4XO5JUeQITMS-13" style="edgeStyle=orthogonalEdgeStyle;rounded=0;orthogonalLoop=1;jettySize=auto;html=1;" parent="1" source="2PNbPFjb4XO5JUeQITMS-10" target="jtdmb_QFqif3eSZ9cabo-22" edge="1">
          <mxGeometry relative="1" as="geometry">
            <Array as="points">
              <mxPoint x="33" y="1820" />
              <mxPoint x="33" y="1790" />
            </Array>
          </mxGeometry>
        </mxCell>
        <mxCell id="2PNbPFjb4XO5JUeQITMS-10" value="Computation Core" style="rounded=0;whiteSpace=wrap;html=1;" parent="1" vertex="1">
          <mxGeometry x="-219" y="1790" width="120" height="60" as="geometry" />
        </mxCell>
        <mxCell id="2PNbPFjb4XO5JUeQITMS-20" style="edgeStyle=orthogonalEdgeStyle;rounded=0;orthogonalLoop=1;jettySize=auto;html=1;entryX=0.5;entryY=0;entryDx=0;entryDy=0;" parent="1" source="2PNbPFjb4XO5JUeQITMS-11" target="jtdmb_QFqif3eSZ9cabo-36" edge="1">
          <mxGeometry relative="1" as="geometry" />
        </mxCell>
        <mxCell id="2PNbPFjb4XO5JUeQITMS-11" value="Memory Cell" style="rounded=0;whiteSpace=wrap;html=1;fillColor=#d5e8d4;strokeColor=#82b366;" parent="1" vertex="1">
          <mxGeometry x="-219" y="1500" width="120" height="60" as="geometry" />
        </mxCell>
        <mxCell id="2PNbPFjb4XO5JUeQITMS-14" style="edgeStyle=orthogonalEdgeStyle;rounded=0;orthogonalLoop=1;jettySize=auto;html=1;" parent="1" source="2PNbPFjb4XO5JUeQITMS-12" target="jtdmb_QFqif3eSZ9cabo-22" edge="1">
          <mxGeometry relative="1" as="geometry">
            <Array as="points">
              <mxPoint x="33" y="1744" />
              <mxPoint x="33" y="1790" />
            </Array>
          </mxGeometry>
        </mxCell>
        <mxCell id="2PNbPFjb4XO5JUeQITMS-12" value="Memory Cell" style="rounded=0;whiteSpace=wrap;html=1;fillColor=#d5e8d4;strokeColor=#82b366;" parent="1" vertex="1">
          <mxGeometry x="-219" y="1714" width="120" height="60" as="geometry" />
        </mxCell>
        <mxCell id="2PNbPFjb4XO5JUeQITMS-17" style="edgeStyle=orthogonalEdgeStyle;rounded=0;orthogonalLoop=1;jettySize=auto;html=1;entryX=0;entryY=0.5;entryDx=0;entryDy=0;" parent="1" source="2PNbPFjb4XO5JUeQITMS-16" target="jtdmb_QFqif3eSZ9cabo-35" edge="1">
          <mxGeometry relative="1" as="geometry">
            <Array as="points">
              <mxPoint x="60" y="1670" />
              <mxPoint x="60" y="1690" />
            </Array>
          </mxGeometry>
        </mxCell>
        <mxCell id="2PNbPFjb4XO5JUeQITMS-18" style="edgeStyle=orthogonalEdgeStyle;rounded=0;orthogonalLoop=1;jettySize=auto;html=1;entryX=0;entryY=0.5;entryDx=0;entryDy=0;" parent="1" source="2PNbPFjb4XO5JUeQITMS-16" target="jtdmb_QFqif3eSZ9cabo-36" edge="1">
          <mxGeometry relative="1" as="geometry">
            <Array as="points">
              <mxPoint x="60" y="1670" />
              <mxPoint x="60" y="1600" />
            </Array>
          </mxGeometry>
        </mxCell>
        <mxCell id="2PNbPFjb4XO5JUeQITMS-16" value="Kinetic Circuit" style="rounded=0;whiteSpace=wrap;html=1;fillColor=#d5e8d4;strokeColor=#82b366;" parent="1" vertex="1">
          <mxGeometry x="-219" y="1640" width="120" height="60" as="geometry" />
        </mxCell>
        <mxCell id="2PNbPFjb4XO5JUeQITMS-21" style="edgeStyle=orthogonalEdgeStyle;rounded=0;orthogonalLoop=1;jettySize=auto;html=1;entryX=-0.007;entryY=0.376;entryDx=0;entryDy=0;entryPerimeter=0;" parent="1" source="2PNbPFjb4XO5JUeQITMS-16" target="jtdmb_QFqif3eSZ9cabo-22" edge="1">
          <mxGeometry relative="1" as="geometry">
            <Array as="points">
              <mxPoint x="60" y="1670" />
              <mxPoint x="60" y="1773" />
            </Array>
          </mxGeometry>
        </mxCell>
        <mxCell id="9OOOkesIyayVfJojbaEA-2" style="edgeStyle=orthogonalEdgeStyle;rounded=0;orthogonalLoop=1;jettySize=auto;html=1;entryX=0;entryY=0.5;entryDx=0;entryDy=0;" parent="1" source="9OOOkesIyayVfJojbaEA-1" target="Odbw6xBOLVZNWxYlY6ok-259" edge="1">
          <mxGeometry relative="1" as="geometry" />
        </mxCell>
        <mxCell id="9OOOkesIyayVfJojbaEA-3" style="edgeStyle=orthogonalEdgeStyle;rounded=0;orthogonalLoop=1;jettySize=auto;html=1;entryX=0.5;entryY=1;entryDx=0;entryDy=0;" parent="1" source="9OOOkesIyayVfJojbaEA-1" target="jtdmb_QFqif3eSZ9cabo-64" edge="1">
          <mxGeometry relative="1" as="geometry">
            <Array as="points">
              <mxPoint x="-320" y="1470" />
            </Array>
          </mxGeometry>
        </mxCell>
        <mxCell id="9OOOkesIyayVfJojbaEA-1" value="Brass Sheet" style="rounded=0;whiteSpace=wrap;html=1;fillColor=#d5e8d4;strokeColor=#82b366;" parent="1" vertex="1">
          <mxGeometry x="-790" y="1424" width="120" height="60" as="geometry" />
        </mxCell>
        <mxCell id="9OOOkesIyayVfJojbaEA-5" style="edgeStyle=orthogonalEdgeStyle;rounded=0;orthogonalLoop=1;jettySize=auto;html=1;entryX=1;entryY=0.5;entryDx=0;entryDy=0;" parent="1" source="9OOOkesIyayVfJojbaEA-4" target="jtdmb_QFqif3eSZ9cabo-65" edge="1">
          <mxGeometry relative="1" as="geometry">
            <Array as="points">
              <mxPoint x="70" y="1290" />
            </Array>
          </mxGeometry>
        </mxCell>
        <mxCell id="9OOOkesIyayVfJojbaEA-6" style="edgeStyle=orthogonalEdgeStyle;rounded=0;orthogonalLoop=1;jettySize=auto;html=1;entryX=1;entryY=0.5;entryDx=0;entryDy=0;" parent="1" source="9OOOkesIyayVfJojbaEA-4" target="jtdmb_QFqif3eSZ9cabo-77" edge="1">
          <mxGeometry relative="1" as="geometry">
            <Array as="points">
              <mxPoint x="70" y="1410" />
            </Array>
          </mxGeometry>
        </mxCell>
        <mxCell id="9OOOkesIyayVfJojbaEA-4" value="Golden Sheet" style="rounded=0;whiteSpace=wrap;html=1;fillColor=#d5e8d4;strokeColor=#82b366;" parent="1" vertex="1">
          <mxGeometry x="10" y="1200" width="120" height="60" as="geometry" />
        </mxCell>
        <mxCell id="9OOOkesIyayVfJojbaEA-8" style="edgeStyle=orthogonalEdgeStyle;rounded=0;orthogonalLoop=1;jettySize=auto;html=1;entryX=1;entryY=0.75;entryDx=0;entryDy=0;" parent="1" source="9OOOkesIyayVfJojbaEA-7" target="jtdmb_QFqif3eSZ9cabo-77" edge="1">
          <mxGeometry relative="1" as="geometry">
            <Array as="points">
              <mxPoint x="70" y="1425" />
            </Array>
          </mxGeometry>
        </mxCell>
        <mxCell id="9OOOkesIyayVfJojbaEA-7" value="Electron Tube" style="rounded=0;whiteSpace=wrap;html=1;fillColor=#d5e8d4;strokeColor=#82b366;" parent="1" vertex="1">
          <mxGeometry x="10" y="1455" width="120" height="60" as="geometry" />
        </mxCell>
        <mxCell id="icsWugEK6nNElAmf-cyU-13" style="edgeStyle=orthogonalEdgeStyle;rounded=0;orthogonalLoop=1;jettySize=auto;html=1;entryX=0.5;entryY=0;entryDx=0;entryDy=0;" edge="1" parent="1" source="icsWugEK6nNElAmf-cyU-5" target="Odbw6xBOLVZNWxYlY6ok-134">
          <mxGeometry relative="1" as="geometry" />
        </mxCell>
        <mxCell id="icsWugEK6nNElAmf-cyU-14" style="edgeStyle=orthogonalEdgeStyle;rounded=0;orthogonalLoop=1;jettySize=auto;html=1;entryX=0.5;entryY=0;entryDx=0;entryDy=0;" edge="1" parent="1" source="icsWugEK6nNElAmf-cyU-5" target="Odbw6xBOLVZNWxYlY6ok-135">
          <mxGeometry relative="1" as="geometry">
            <Array as="points">
              <mxPoint x="23" y="840" />
              <mxPoint x="-147" y="840" />
            </Array>
          </mxGeometry>
        </mxCell>
        <mxCell id="icsWugEK6nNElAmf-cyU-15" style="edgeStyle=orthogonalEdgeStyle;rounded=0;orthogonalLoop=1;jettySize=auto;html=1;entryX=0.5;entryY=0;entryDx=0;entryDy=0;" edge="1" parent="1" source="icsWugEK6nNElAmf-cyU-5" target="Odbw6xBOLVZNWxYlY6ok-133">
          <mxGeometry relative="1" as="geometry">
            <Array as="points">
              <mxPoint x="43" y="840" />
              <mxPoint x="223" y="840" />
            </Array>
          </mxGeometry>
        </mxCell>
        <mxCell id="icsWugEK6nNElAmf-cyU-16" value="Cracking Column" style="edgeLabel;html=1;align=center;verticalAlign=middle;resizable=0;points=[];" vertex="1" connectable="0" parent="icsWugEK6nNElAmf-cyU-15">
          <mxGeometry x="-0.633" y="-3" relative="1" as="geometry">
            <mxPoint as="offset" />
          </mxGeometry>
        </mxCell>
        <mxCell id="icsWugEK6nNElAmf-cyU-5" value="Mixed Hydrocarbons" style="rounded=0;whiteSpace=wrap;html=1;" vertex="1" parent="1">
          <mxGeometry x="-27" y="660" width="120" height="60" as="geometry" />
        </mxCell>
        <mxCell id="icsWugEK6nNElAmf-cyU-11" style="edgeStyle=orthogonalEdgeStyle;rounded=0;orthogonalLoop=1;jettySize=auto;html=1;exitX=0;exitY=0.5;exitDx=0;exitDy=0;entryX=0.5;entryY=1;entryDx=0;entryDy=0;" edge="1" parent="1" source="icsWugEK6nNElAmf-cyU-10" target="Odbw6xBOLVZNWxYlY6ok-149">
          <mxGeometry relative="1" as="geometry">
            <Array as="points">
              <mxPoint x="407" y="690" />
            </Array>
          </mxGeometry>
        </mxCell>
        <mxCell id="icsWugEK6nNElAmf-cyU-10" value="Water" style="rounded=0;whiteSpace=wrap;html=1;" vertex="1" parent="1">
          <mxGeometry x="520" y="660" width="120" height="60" as="geometry" />
        </mxCell>
        <mxCell id="icsWugEK6nNElAmf-cyU-18" value="&lt;h1 style=&quot;margin-top: 0px;&quot;&gt;Note:&lt;br&gt;&lt;/h1&gt;&lt;div&gt;All Cracking Column recipes require Hydrogen Gas&lt;/div&gt;" style="text;html=1;whiteSpace=wrap;overflow=hidden;rounded=0;" vertex="1" parent="1">
          <mxGeometry x="-207" y="730" width="180" height="120" as="geometry" />
        </mxCell>
        <mxCell id="icsWugEK6nNElAmf-cyU-21" value="Lubricant" style="rounded=0;whiteSpace=wrap;html=1;" vertex="1" parent="1">
          <mxGeometry x="-27" y="1010" width="120" height="60" as="geometry" />
        </mxCell>
      </root>
    </mxGraphModel>
  </diagram>
</mxfile>
